<svg width="1440" height="1055" viewBox="0 0 1440 1055" fill="none" xmlns="http://www.w3.org/2000/svg">
<path d="M229.987 87.7111C162.633 87.7111 139.318 119.497 136.08 135.389C88.8022 84.741 17.6164 88.7533 -12.0668 97.0904C-13.9557 351.113 -55.7406 827.205 -12.067 888.859C90.7453 1034 208.939 985.779 254.273 977.181C297.989 999.066 355.164 1002.8 381.879 1009.84C403.251 1015.47 504.39 1003.58 549.455 1001.24C579.948 1000.72 639.778 975.305 656.617 939.664C720.732 980.307 871.654 965.457 935.1 910.744C973.148 929.763 1056.86 967.333 1087.29 965.457C1125.34 963.112 1171.49 939.664 1200.63 920.124C1223.95 935.131 1258.38 939.403 1272.68 939.664C1288.6 936.277 1318.5 921.374 1310.73 888.859C1342.46 906.367 1436.75 896.154 1479.92 888.859L1502.43 258C1499.19 251.226 1444.95 229.182 1424.87 229.182C1407.87 162.746 1385.21 146.332 1320.44 113.504C1255.68 80.6766 1199.82 113.504 1161.77 125.228C1144.77 105.688 1068.67 71.2974 1028.2 63.4813C995.816 57.2284 932.671 83.282 905.147 97.0904H834.716C786.144 106.47 780.477 113.504 756.19 135.389C712.151 124.759 647.172 146.071 620.187 158.056C598.599 143.205 544.09 113.504 498.756 113.504C453.421 113.504 412.372 163.095 395.642 170.39C369.736 154.498 297.341 87.7111 229.987 87.7111Z" fill="#FFC300"/>
<path d="M274.165 836.393C-96.1326 846.174 -24.1702 483.599 186.472 483.599C165.679 432.95 201.841 361.343 243.427 314.188C285.014 267.032 365.474 281.877 388.075 281.877C390.787 268.779 426.949 233.848 478.479 233.848C519.704 233.848 528.805 255.971 528.202 267.032C548.392 241.999 609.385 189.138 691.834 177.96C774.283 166.783 826.236 210.562 841.906 233.848C862.699 204.449 927.609 152.112 1020.91 177.96C1114.2 203.809 1137.53 279.549 1137.53 314.188C1146.27 316.516 1168.81 321.174 1189.06 321.174C1214.37 321.174 1269.52 337.766 1318.34 361.343C1367.16 384.921 1356.31 380.555 1370.77 407.626C1385.24 434.697 1401.51 483.599 1402.41 534.248C1403.32 584.896 1351.79 649.517 1328.28 665.236C1304.78 680.954 1197.2 707.152 1146.57 707.152C1055.26 803.21 1023.62 768.279 1009.15 768.279C1003.73 779.632 977.513 824.168 935.927 845.999C894.341 867.83 823.825 836.393 810.264 824.168C794.895 843.379 716.243 848.619 701.779 860.844C687.314 873.07 601.43 908 560.748 908C520.065 908 469.439 875.69 426.949 836.393C363.304 860.146 320.874 838.14 307.615 824.168L274.165 836.393Z" fill="white" stroke="black" stroke-width="4" stroke-linecap="round" stroke-linejoin="round"/>
<path d="M57.0502 211.821C84.0606 135.688 148.957 133.125 200.161 181.619C191.45 81.9191 32.1693 107.495 57.0502 211.821Z" fill="black" stroke="black"/>
<path d="M-11.5586 145.379C5.44168 71.1264 76.6813 81.2873 125.682 140.976C120.397 59.4023 -47.1787 40.6437 -11.5586 145.379Z" fill="black" stroke="black"/>
<path d="M824.555 211.927C840.746 132.985 904.7 122.042 962.177 163.467C939.696 65.796 785.407 111.765 824.555 211.927Z" fill="black" stroke="black"/>
<path d="M1187.69 903.232C1146.76 976.763 1035.37 970.27 943.828 913.847C966.02 1016.32 1238.02 1012.67 1187.69 903.232Z" fill="black" stroke="black"/>
<path d="M913.413 900.591C873.049 966.903 734.274 966.323 613.072 921.078C654.882 1009.85 991.022 994.18 913.413 900.591Z" fill="black" stroke="black"/>
<path d="M570.926 903C547.696 980.287 479.943 971.328 426.408 925.241C440.019 1024.43 600.917 1006.07 570.926 903Z" fill="black" stroke="black"/>
<path d="M1251.12 830.663C1227.89 907.95 1163.2 913.49 1109.66 867.402C1123.27 966.589 1281.12 933.729 1251.12 830.663Z" fill="black" stroke="black"/>
<path d="M1317.51 865.054C1294.28 942.341 1229.58 947.88 1176.05 901.792C1189.66 1000.98 1347.5 968.12 1317.51 865.054Z" fill="black" stroke="black"/>
<path d="M1005.23 856.642C946.688 913.927 858.702 923.079 834.415 837.884C813.368 935.585 969.608 964.504 1005.23 856.642Z" fill="black" stroke="black"/>
<path d="M755.685 191.395C778.161 113.901 850.545 64.7462 914.534 127.922C883.932 32.6041 732.735 80.3722 755.685 191.395Z" fill="black" stroke="black"/>
<path d="M626.36 164.919C674.935 132.873 712.983 121.215 763.171 153.195C768.032 109.425 646.6 107.862 626.36 164.919Z" fill="black" stroke="black"/>
<path d="M388.507 327C406.615 237.662 478.142 225.279 542.426 272.159C517.283 161.626 344.724 213.648 388.507 327Z" fill="black" stroke="black"/>
<path d="M458.741 783.478C407.024 865.517 325.706 859.407 295.782 770.665C271.416 879.892 450.074 902.738 458.741 783.478Z" fill="black" stroke="black"/>
<path d="M328.618 907.181C262.859 988.411 171.223 969.638 145.033 868.945C107.907 983.741 308.412 1035.2 328.618 907.181Z" fill="black" stroke="black"/>
<path d="M248.305 969.194C172.208 1006.71 10.1163 950.194 -16.0739 849.5C-53.1999 964.296 194.065 1061.42 248.305 969.194Z" fill="black" stroke="black"/>
<path d="M657.939 946.527C576.979 1004.37 397.729 1033.31 258.829 968.412C252.821 1061.45 654.672 1052.54 657.939 946.527Z" fill="black" stroke="black"/>
<path d="M337.518 259.656C358.904 184.76 433.827 172.241 487.836 235.012C476.338 144.747 308.85 164.911 337.518 259.656Z" fill="black" stroke="black"/>
<path d="M396.161 190.708C438.884 95.5676 559.866 94.5526 638.831 189.299C630.853 66.8601 361.3 58.728 396.161 190.708Z" fill="black" stroke="black"/>
<path d="M1066.04 191.349C1129.52 108.59 1215.76 122.71 1238.8 220.252C1275.8 105.91 1087.28 64.8276 1066.04 191.349Z" fill="black" stroke="black"/>
<path d="M854.288 712.633C823.555 867.262 616.645 905.668 560.904 720.267C537.672 921.741 860.953 929.233 854.288 712.633Z" fill="black" stroke="black"/>
<path d="M1004.26 759.9C961.796 827.983 931.076 864.643 801.87 819.254C909.391 930.981 1017.82 828.856 1004.26 759.9Z" fill="black" stroke="black"/>
<path d="M513.641 287.688C583.214 178.581 735.009 161.997 852.469 260.629C807.291 77.3301 452.202 133.193 513.641 287.688Z" fill="black" stroke="black"/>
<path d="M98.5365 148.505C186.777 77.3792 305.779 90.6333 399.344 190.455C379.455 22.8256 106.634 38.2988 98.5365 148.505Z" fill="black" stroke="black"/>
<path d="M872.103 152.94C946.074 63.1241 1082.94 64.0587 1176.51 163.881C1156.62 -3.749 834.557 9.239 872.103 152.94Z" fill="black" stroke="black"/>
<path d="M1145.48 142.044C1243.33 76.9052 1373.98 116.263 1433.4 238.058C1464.91 72.0965 1152.88 -5.98618 1145.48 142.044Z" fill="black" stroke="black"/>
<path d="M1472.34 711.263C1496.9 823.535 1454.32 883.579 1315.02 889.604C1461.51 981.608 1610.97 774.882 1472.34 711.263Z" fill="black" stroke="black"/>
<path d="M836.065 239.417C940.372 160.247 1060.32 185.604 1135.28 317.365C1167.8 154.141 898.55 81.6941 836.065 239.417Z" fill="black" stroke="black"/>
<path d="M181.14 475.351C200.114 371.481 280.528 267.612 395.278 304.272C324.802 199.529 125.119 313.873 181.14 475.351Z" fill="black" stroke="black"/>
<path d="M718.251 796.609C699.666 923.628 481.068 937.84 403.931 777.488C397.767 944.451 745.6 978.859 718.251 796.609Z" fill="black" stroke="black"/>
<path d="M316.667 827.111C107.049 903.049 -107.372 572.188 183.374 484.523C-149.226 484.523 12.1771 973.75 316.667 827.111Z" fill="black" stroke="black"/>
<path d="M1136.18 318.221C1301.53 303.392 1526.53 664.766 1150.66 701.405C1572.61 734.597 1457.53 210.278 1136.18 318.221Z" fill="black" stroke="black"/>
<path d="M1148.65 612.295C1173.1 737.336 1029.48 825.592 930.602 702.244C975.095 860.34 1220.25 773.178 1148.65 612.295Z" fill="black" stroke="black"/>
<path d="M739.812 296.641C793.48 233.862 873.64 257.895 921.151 325.561C940.58 219.262 763.29 166.112 739.812 296.641Z" fill="black" stroke="black"/>
<path d="M188.398 85.1953L398.88 413.471L131.73 109.425L188.398 85.1953Z" fill="black" stroke="black"/>
<path d="M730.793 969.975L748.926 766.5L768.926 969.975L730.793 969.975Z" fill="black" stroke="black"/>
<path d="M1294.14 764.084L1177.66 624.848L1331.04 730.491L1294.14 764.084Z" fill="black" stroke="black"/>
<path d="M6.27028 798.358L171.387 717L32.7146 840.143L6.27028 798.358Z" fill="black" stroke="black"/>
<path d="M-14.1096 502.501L173.761 569.041L-14.0889 562.231L-14.1096 502.501Z" fill="black" stroke="black"/>
<path d="M313.877 1011.4L372.926 763L355.973 1011.4L313.877 1011.4Z" fill="black" stroke="black"/>
<path d="M1096.71 68.7814L1030.26 369.704L1048.94 68.7813L1096.71 68.7814Z" fill="black" stroke="black"/>
<path d="M1466.67 368.919L1185.75 473.944L1466.67 302.482L1466.67 368.919Z" fill="black" stroke="black"/>
<g filter="url(#filter0_d)">
<path d="M522.82 118.611L41.426 253.916L88.5075 354.665L542.624 213.941L522.82 118.611Z" fill="white"/>
</g>
<path d="M127.518 273.23C128.532 271.528 129.474 269.381 130.53 269.594C131.2 269.688 131.671 271.476 132.289 272.577C134.721 277.639 140.436 272.677 140.602 268.306C140.693 264.074 139.628 262.054 139.32 261.21C138.24 258.551 137.828 254.001 133.747 255.209C129.075 256.592 123.45 263.63 121.868 266.376C119.142 270.979 116.472 276.558 114.18 281.442C112.801 284.478 111.166 287.24 111.057 290.426C111.089 292.11 111.305 293.039 112.305 293.852C115.246 296.486 119.074 295.411 122.696 293.638C124.373 292.792 127.117 291.804 127.762 291.613C130.061 290.699 131.441 290.232 133.428 289.644C135.683 288.977 144.272 287.018 144.206 288.965C144.142 290.327 139.255 293.35 137.364 294.261C135.128 295.39 132.068 296.296 128.631 297.313C125.087 298.362 122.01 299.214 118.765 299.299C117.665 299.332 116.603 299.296 115.529 299.614C112.845 300.409 111.199 302.94 111.155 304.764C111.064 310.572 122.169 310.205 128.129 308.441C134.304 306.613 140.105 304.312 145.297 300.147C149.45 296.815 153.872 290.25 154.073 285.402C154.204 275.785 144.102 276.381 135.833 278.829C133.416 279.544 122.989 283.974 122.965 283.105C123.053 281.035 126.778 274.676 127.518 273.23ZM183.116 243.049C175.116 245.417 161.59 250.822 159.49 255.765C159.009 256.901 158.833 257.887 158.835 258.879C158.723 263.234 159.165 266.9 159.106 271.239L158.954 274.671C158.748 281.273 159.681 287.188 160.109 293.368C160.287 295.944 162.188 296.841 164.282 296.221C168.739 294.902 169.03 291.545 169.055 289.26C169.105 287.26 168.831 284.362 168.603 280.634C173.027 278.215 182.82 272.629 182.82 272.629C192.113 266.141 196.354 260.739 198.989 251.49C199.105 250.697 199.258 249.834 199.251 249.019C199.494 239.778 190.419 240.887 183.116 243.049ZM183.571 260.96C178.885 264.859 172.636 267.818 168.511 269.273L168.181 259.675C168.181 259.675 174.635 256.422 177.911 255.452C179.039 255.118 188.997 251.47 189.141 252.945C189.383 255.736 185.906 258.984 183.571 260.96ZM227.188 233.098C215.375 236.595 203.304 248.695 202.959 262.522C202.724 269.424 205.885 274.971 210.863 277.585C212.581 278.654 218.997 278.624 221.252 277.956C225.923 276.573 231.097 272.939 235.224 269.323C236.398 268.158 237.571 266.993 238.729 265.775L240.619 263.872C246.622 257.715 248.142 254.169 248.301 247.406C248.781 230.678 238.966 229.087 227.188 233.098ZM235.032 257.232C231.008 261.986 226.344 265.761 221.243 267.271C217.538 268.368 212.438 263.57 212.548 259.8C213.495 251.752 219.25 246.136 226.177 244.085C228.378 243.434 230.419 242.83 232.334 242.788C236.444 242.272 238.335 246.093 238.222 250.448C238.194 252.325 237.543 254.27 235.032 257.232ZM254.05 252.304C253.64 254.469 253.407 256.641 253.211 258.743C253.016 260.845 252.558 262.849 252.518 265.08C252.533 268.288 254.012 270.128 256.75 269.317C260.992 268.062 261.516 264.11 261.851 260.507L262.68 253.837C263.412 249.007 264.099 244.424 264.659 239.41C267.218 240.755 269.373 242.512 271.721 244.328L273.224 245.46C275.841 247.197 280.141 250.479 281.712 253.811C282.775 256.416 284.798 260.489 287.751 259.615C291.832 258.407 292.64 251.861 292.719 250.552C292.726 248.798 292.543 247.392 292.526 246.346C292.736 241.729 292.82 239.251 292.674 235.206C292.524 230.754 292.726 225.321 292.282 220.663C292.135 219.772 292.128 210.08 287.993 211.304C284.879 212.225 283.143 217.411 283.091 219.997C282.912 224.721 283.341 229.325 283.2 233.981C283.176 234.688 283.114 235.466 283.02 237.713C279.473 235.201 276.125 232.571 272.316 229.961C269.18 227.852 268.48 227.066 267.749 226.173L267.711 226.243C266.029 224.112 264.347 221.982 260.481 223.127C256.991 224.16 255.463 228.467 255.36 231.475C255.292 234.007 255.423 236.421 255.106 239.493C254.771 243.097 254.678 247.913 254.05 252.304ZM314.513 217.879C315.528 216.177 316.469 214.029 317.525 214.242C318.195 214.336 318.666 216.124 319.284 217.226C321.717 222.287 327.431 217.325 327.598 212.954C327.688 208.723 326.623 206.702 326.315 205.859C325.236 203.2 324.823 198.65 320.742 199.858C316.071 201.24 310.445 208.279 308.863 211.024C306.138 215.627 303.468 221.207 301.175 226.09C299.796 229.126 298.161 231.888 298.053 235.074C298.084 236.758 298.301 237.687 299.301 238.501C302.241 241.134 306.07 240.06 309.691 238.287C311.368 237.44 314.113 236.452 314.757 236.262C317.056 235.347 318.436 234.88 320.423 234.292C322.678 233.625 331.268 231.666 331.201 233.613C331.137 234.975 326.251 237.999 324.359 238.909C322.124 240.038 319.063 240.944 315.626 241.961C312.082 243.01 309.006 243.863 305.76 243.947C304.661 243.981 303.599 243.945 302.525 244.263C299.84 245.057 298.195 247.588 298.15 249.412C298.059 255.221 309.164 254.854 315.124 253.089C321.299 251.261 327.101 248.96 332.292 244.795C336.445 241.464 340.868 234.898 341.068 230.05C341.2 220.433 331.097 221.029 322.828 223.477C320.412 224.192 309.984 228.622 309.961 227.753C310.049 225.683 313.773 219.324 314.513 217.879ZM369.191 191.065C357.378 194.561 345.308 206.661 344.962 220.488C344.727 227.39 347.888 232.937 352.867 235.552C354.584 236.62 361 236.59 363.255 235.922C367.927 234.539 373.1 230.906 377.227 227.289C378.401 226.124 379.575 224.959 380.732 223.741L382.622 221.838C388.625 215.681 390.145 212.136 390.304 205.372C390.784 188.644 380.969 187.053 369.191 191.065ZM377.036 215.199C373.011 219.952 368.347 223.727 363.246 225.237C359.541 226.334 354.441 221.536 354.552 217.766C355.498 209.718 361.253 204.102 368.18 202.051C370.381 201.4 372.422 200.796 374.337 200.755C378.448 200.239 380.338 204.059 380.225 208.414C380.197 210.292 379.546 212.236 377.036 215.199ZM426.404 195.212C430.687 190.149 433.14 185.217 433.249 180.455C433.386 173.815 430.229 170.252 423.302 172.303C419.328 173.479 418.346 173.711 417.379 173.997C413.62 175.11 402.694 179.629 398.461 182.693C396.794 183.77 395.738 185.134 395.672 187.081C395.644 188.958 396.178 190.961 396.424 192.581C396.732 195.002 396.733 197.571 396.649 200.049C396.606 202.865 396.381 205.851 396.285 208.683C396.186 212.1 396.432 215.297 396.769 218.41C397.313 223.797 397.67 227.371 400.784 226.449C404.113 225.463 405.896 220.438 405.984 218.368C406.031 215.96 405.62 213.979 405.638 211.871C405.687 208.879 411.522 207.677 413.025 207.232C414.636 206.755 416.734 206.543 418.5 206.195C420.089 205.842 421.447 205.498 424.198 205.911C426.423 206.128 427.294 207.097 427.193 209.521C427.135 212.283 427.969 217.467 432.104 216.244C436.883 214.829 436.901 206.998 436.953 204.413C437.144 196.18 432.793 194.898 426.404 195.212ZM423.231 184.296C423.175 186.474 419.399 192.263 415.097 195.289C414.386 195.849 412.233 196.662 409.279 197.536C408.366 197.807 407.491 198.007 406.203 198.389C406.169 197.289 406.279 196.673 406.303 195.965C406.327 193.68 406.215 190.735 406.05 188.798C408.289 188.076 417.619 184.672 419.552 184.1C421.109 183.639 423.09 183.228 423.231 184.296ZM458.037 175.395C459.052 173.693 459.993 171.545 461.049 171.758C461.719 171.852 462.19 173.64 462.808 174.742C465.241 179.803 470.955 174.841 471.122 170.47C471.212 166.239 470.147 164.218 469.839 163.375C468.76 160.716 468.347 156.166 464.266 157.374C459.595 158.756 453.969 165.795 452.387 168.54C449.662 173.143 446.991 178.723 444.699 183.606C443.32 186.642 441.685 189.404 441.577 192.59C441.608 194.274 441.825 195.203 442.825 196.017C445.765 198.65 449.594 197.576 453.215 195.803C454.892 194.956 457.636 193.968 458.281 193.778C460.58 192.863 461.96 192.397 463.947 191.808C466.202 191.141 474.792 189.182 474.725 191.129C474.661 192.491 469.775 195.515 467.883 196.425C465.648 197.554 462.587 198.46 459.15 199.477C455.606 200.526 452.53 201.379 449.284 201.463C448.185 201.497 447.123 201.461 446.049 201.779C443.364 202.573 441.719 205.104 441.674 206.928C441.583 212.737 452.688 212.37 458.648 210.605C464.823 208.778 470.625 206.476 475.816 202.312C479.969 198.98 484.392 192.414 484.592 187.566C484.724 177.949 474.621 178.545 466.352 180.993C463.936 181.708 453.508 186.138 453.485 185.269C453.573 183.199 457.297 176.84 458.037 175.395Z" fill="black"/>
<defs>
<filter id="filter0_d" x="41.426" y="112" width="522.65" height="259.362" filterUnits="userSpaceOnUse" color-interpolation-filters="sRGB">
<feFlood flood-opacity="0" result="BackgroundImageFix"/>
<feColorMatrix in="SourceAlpha" type="matrix" values="0 0 0 0 0 0 0 0 0 0 0 0 0 0 0 0 0 0 127 0"/>
<feOffset dx="8" dy="8"/>
<feGaussianBlur stdDeviation="2"/>
<feColorMatrix type="matrix" values="0 0 0 0 0.433333 0 0 0 0 0.433333 0 0 0 0 0.433333 0 0 0 0.66 0"/>
<feBlend mode="normal" in2="BackgroundImageFix" result="effect1_dropShadow"/>
<feBlend mode="normal" in="SourceGraphic" in2="effect1_dropShadow" result="shape"/>
</filter>
</defs>
</svg>
