<svg width="312" height="92" viewBox="0 0 312 92" fill="none" xmlns="http://www.w3.org/2000/svg">
<g filter="url(#filter0_d)">
<path d="M3 72.3607L297 77L287.269 3L7.7439 7.06657L3 72.3607Z" fill="#B5C732"/>
<path d="M3 72.3607L297 77L287.269 3L7.7439 7.06657L3 72.3607Z" stroke="#B5C732" stroke-width="5" stroke-linejoin="round"/>
</g>
<path d="M119.795 21.532C119.147 21.208 118.499 21.172 117.851 21.172C112.775 21.172 102.911 26.428 98.9874 31.432C97.0434 33.916 95.3514 36.472 94.5234 39.064C93.4434 42.304 94.1634 45.76 95.2074 47.416C96.9714 50.224 101.399 52.024 105.611 52.024C108.851 52.024 112.595 51.16 115.403 49.504V49.54L116.375 48.964C118.355 47.92 121.019 46.12 121.811 43.636C122.207 42.484 121.811 41.116 120.407 41.116C118.787 41.116 117.311 42.628 115.943 43.24C113.531 44.68 111.047 45.328 108.527 45.328C107.267 45.328 104.855 45.04 103.451 44.464C101.111 43.456 100.463 40.9 101.219 38.56C101.759 36.868 103.667 33.772 105.863 32.08C107.951 30.424 113.567 28.012 113.927 28.012C115.259 28.012 113.567 35.248 117.131 35.248C119.075 35.248 120.587 33.556 121.091 31.9C121.847 29.632 121.595 27.004 121.343 26.212C120.767 24.412 121.415 22.504 119.795 21.532ZM146.98 23.872C139.06 23.872 129.412 29.128 126.676 37.588C125.272 41.8 126.208 45.796 128.8 48.316C129.664 49.288 133.624 50.44 135.136 50.44C138.268 50.44 142.12 49.144 145.324 47.668C146.26 47.164 147.196 46.66 148.132 46.12L149.644 45.292C154.468 42.592 156.052 40.684 157.384 36.544C160.732 26.32 154.972 23.548 146.98 23.872ZM147.412 40.18C144.064 42.376 140.5 43.852 137.08 43.852C134.596 43.852 132.328 39.964 133.084 37.66C135.136 32.872 139.708 30.46 144.352 30.46C145.828 30.46 147.196 30.46 148.384 30.784C151.012 31.216 151.48 33.916 150.616 36.58C150.256 37.732 149.5 38.812 147.412 40.18ZM191.57 25.384C190.31 22.684 186.962 22.468 183.938 22.468H181.958C178.322 22.468 171.662 23.008 167.918 23.944C165.938 24.412 163.85 25.456 163.202 27.508C162.518 29.56 163.238 31.468 162.95 33.088C162.662 34.456 162.302 35.896 161.906 37.192C161.438 38.668 160.862 40.108 160.322 41.656C160.034 42.628 159.818 43.564 159.638 44.248C159.422 44.86 159.026 45.724 158.738 46.588C157.874 49.288 157.874 51.088 161.51 51.088C163.85 51.088 169.79 49.72 174.11 47.452C181.778 43.456 188.834 38.992 191.714 30.28C192.254 28.552 192.326 27.112 191.57 25.384ZM183.938 32.872C183.506 33.664 182.642 34.816 181.886 35.608C178.322 39.28 170.438 43.528 165.83 43.996C165.974 43.06 166.442 42.016 167.018 40.18C167.702 38.2 168.422 36.328 168.998 34.42C169.178 33.952 169.43 33.34 169.646 32.8C169.898 32.08 170.042 31.18 170.114 29.344C170.798 29.128 170.978 29.2 171.914 29.128C174.182 28.876 176.414 28.732 178.07 28.732C178.79 28.732 179.438 28.732 180.806 28.768C182.822 28.768 185.522 28.804 184.766 31.072C184.586 31.648 184.262 32.26 183.938 32.872ZM213.342 48.424C214.71 47.884 215.97 46.732 216.294 45.688C216.69 44.536 216.114 43.42 213.918 43.42C210.642 43.42 207.114 43.924 204.558 44.176C199.374 44.86 197.718 45.04 196.998 45.04C196.602 45.04 196.782 44.572 196.926 44.068C197.394 42.556 197.718 41.332 198.114 40.288C202.146 39.208 207.186 39.028 210.318 38.272C211.182 38.056 214.026 36.832 214.53 35.428C215.106 33.556 212.01 32.872 210.462 32.872C206.718 32.872 203.298 33.448 200.274 33.808C200.598 32.656 201.066 31.612 201.678 30.46C201.966 29.848 203.19 29.668 204.126 29.56C207.33 29.02 212.082 28.768 213.882 28.768C216.15 28.768 220.398 28.876 221.514 25.528C222.198 23.368 220.218 23.224 218.49 23.008L217.41 22.9C215.322 22.684 213.846 22.828 210.642 22.756C207.222 22.756 205.566 22.9 202.47 23.188C201.534 23.188 199.734 23.296 198.726 24.196C197.718 25.06 196.89 26.428 196.458 27.544C194.874 31.288 193.542 34.888 192.21 38.92C191.634 40.756 191.058 42.736 190.806 44.32C190.302 46.912 190.122 48.496 190.554 49.936C191.022 51.448 193.182 51.448 194.19 51.448C195.234 51.448 196.458 51.34 197.538 51.124C202.794 50.224 208.086 50.116 213.342 48.424Z" fill="black"/>
<defs>
<filter id="filter0_d" x="0.5" y="0.5" width="311" height="91" filterUnits="userSpaceOnUse" color-interpolation-filters="sRGB">
<feFlood flood-opacity="0" result="BackgroundImageFix"/>
<feColorMatrix in="SourceAlpha" type="matrix" values="0 0 0 0 0 0 0 0 0 0 0 0 0 0 0 0 0 0 127 0"/>
<feOffset dx="8" dy="8"/>
<feGaussianBlur stdDeviation="2"/>
<feColorMatrix type="matrix" values="0 0 0 0 0.433333 0 0 0 0 0.433333 0 0 0 0 0.433333 0 0 0 0.66 0"/>
<feBlend mode="normal" in2="BackgroundImageFix" result="effect1_dropShadow"/>
<feBlend mode="normal" in="SourceGraphic" in2="effect1_dropShadow" result="shape"/>
</filter>
</defs>
</svg>
