<svg width="312" height="92" viewBox="0 0 312 92" fill="none" xmlns="http://www.w3.org/2000/svg">
<g filter="url(#filter0_d)">
<path d="M297 7.63932L3 3L12.7311 77L292.256 72.9334L297 7.63932Z" fill="#00CCA8"/>
<path d="M297 7.63932L3 3L12.7311 77L292.256 72.9334L297 7.63932Z" stroke="#00CCA8" stroke-width="5" stroke-linejoin="round"/>
</g>
<path d="M106 25.384C104.74 22.684 101.392 22.468 98.3675 22.468H96.3875C92.7515 22.468 86.0915 23.008 82.3475 23.944C80.3675 24.412 78.2795 25.456 77.6315 27.508C76.9475 29.56 77.6675 31.468 77.3795 33.088C77.0915 34.456 76.7315 35.896 76.3355 37.192C75.8675 38.668 75.2915 40.108 74.7515 41.656C74.4635 42.628 74.2475 43.564 74.0675 44.248C73.8515 44.86 73.4555 45.724 73.1675 46.588C72.3035 49.288 72.3035 51.088 75.9395 51.088C78.2795 51.088 84.2195 49.72 88.5395 47.452C96.2075 43.456 103.264 38.992 106.144 30.28C106.684 28.552 106.756 27.112 106 25.384ZM98.3675 32.872C97.9355 33.664 97.0715 34.816 96.3155 35.608C92.7515 39.28 84.8675 43.528 80.2595 43.996C80.4035 43.06 80.8715 42.016 81.4475 40.18C82.1315 38.2 82.8515 36.328 83.4275 34.42C83.6075 33.952 83.8595 33.34 84.0755 32.8C84.3275 32.08 84.4715 31.18 84.5435 29.344C85.2275 29.128 85.4075 29.2 86.3435 29.128C88.6115 28.876 90.8435 28.732 92.4995 28.732C93.2195 28.732 93.8675 28.732 95.2355 28.768C97.2515 28.768 99.9515 28.804 99.1955 31.072C99.0155 31.648 98.6915 32.26 98.3675 32.872ZM127.913 48.424C129.281 47.884 130.541 46.732 130.865 45.688C131.261 44.536 130.685 43.42 128.489 43.42C125.213 43.42 121.685 43.924 119.129 44.176C113.945 44.86 112.289 45.04 111.569 45.04C111.173 45.04 111.353 44.572 111.497 44.068C111.965 42.556 112.289 41.332 112.685 40.288C116.717 39.208 121.757 39.028 124.889 38.272C125.753 38.056 128.597 36.832 129.101 35.428C129.677 33.556 126.581 32.872 125.033 32.872C121.289 32.872 117.869 33.448 114.845 33.808C115.169 32.656 115.637 31.612 116.249 30.46C116.537 29.848 117.761 29.668 118.697 29.56C121.901 29.02 126.653 28.768 128.453 28.768C130.721 28.768 134.969 28.876 136.085 25.528C136.769 23.368 134.789 23.224 133.061 23.008L131.981 22.9C129.893 22.684 128.417 22.828 125.213 22.756C121.793 22.756 120.137 22.9 117.041 23.188C116.105 23.188 114.305 23.296 113.297 24.196C112.289 25.06 111.461 26.428 111.029 27.544C109.445 31.288 108.113 34.888 106.781 38.92C106.205 40.756 105.629 42.736 105.377 44.32C104.873 46.912 104.693 48.496 105.125 49.936C105.593 51.448 107.753 51.448 108.761 51.448C109.805 51.448 111.029 51.34 112.109 51.124C117.365 50.224 122.657 50.116 127.913 48.424ZM149.199 30.424C150.135 29.56 151.107 28.408 151.719 28.732C152.115 28.912 152.079 30.1 152.259 30.892C152.835 34.456 157.263 32.44 158.163 29.776C158.991 27.184 158.703 25.744 158.667 25.168C158.487 23.332 159.063 20.452 156.327 20.452C153.195 20.452 148.443 23.764 146.967 25.168C144.447 27.508 141.783 30.46 139.479 33.052C138.075 34.672 136.563 36.076 135.915 38.02C135.627 39.064 135.591 39.676 136.059 40.36C137.391 42.52 139.947 42.556 142.503 42.124C143.691 41.908 145.563 41.8 145.995 41.8C147.579 41.656 148.515 41.62 149.847 41.62C151.359 41.62 157.011 41.98 156.615 43.168C156.327 43.996 152.763 44.968 151.431 45.184C149.847 45.472 147.795 45.472 145.491 45.472C143.115 45.472 141.063 45.436 139.047 44.896C138.363 44.716 137.715 44.5 136.995 44.5C135.195 44.5 133.719 45.76 133.359 46.876C132.243 50.44 139.155 52.24 143.151 52.24C147.291 52.24 151.287 51.88 155.247 50.26C158.415 48.964 162.339 45.724 163.347 42.772C165.183 36.868 158.847 35.392 153.303 35.392C151.683 35.392 144.447 36.22 144.591 35.68C145.023 34.42 148.479 31.18 149.199 30.424ZM170.624 29.884C169.652 32.872 168.968 35.824 167.96 38.812C167.6 40 167.132 41.224 166.628 42.736C165.584 45.832 165.224 50.872 168.212 50.872C169.976 50.872 171.38 48.568 171.74 47.56C173.036 43.528 173.468 39.604 174.692 35.788C175.52 33.16 176.708 30.568 177.536 27.94C178.184 26.032 178.256 23.08 175.988 23.08C173.576 23.08 171.056 28.552 170.624 29.884ZM201.681 24.34C201.537 23.548 201.897 22.324 200.817 21.712C200.061 21.316 199.377 21.1 198.585 21.1C196.893 21.1 194.481 22.18 192.141 23.26C189.009 24.808 184.617 27.616 182.493 30.604C180.621 33.16 179.037 35.752 178.173 38.344C175.797 45.76 180.297 52.132 188.109 52.132C196.245 52.132 205.101 49.684 207.621 41.836C209.169 37.084 208.125 33.556 203.229 33.556C197.685 33.556 189.837 38.2 189.189 40.18C188.685 41.728 190.161 42.592 191.205 42.592C191.601 42.592 192.213 42.484 192.753 42.304L194.625 41.728C196.425 41.188 198.333 40.468 199.881 40.468C200.565 40.468 201.105 40.792 200.889 41.404C199.989 44.608 194.625 45.22 192.789 45.22C187.497 45.22 185.301 44.428 184.293 41.404C184.113 40.72 184.185 40.036 184.473 39.208C185.337 36.436 187.461 32.8 189.909 30.964C191.169 30.028 194.445 28.228 195.417 28.228C196.065 28.228 195.561 31.396 197.757 31.828C199.737 32.152 201.321 31.576 202.077 29.308C202.653 27.652 202.365 27.076 202.041 25.744L201.681 24.34ZM211.749 40.612C211.101 41.872 210.561 43.168 210.057 44.428C209.553 45.688 208.905 46.84 208.473 48.208C207.897 50.188 208.473 51.592 210.309 51.592C213.153 51.592 214.197 49.252 215.061 47.092L216.789 43.132C218.121 40.288 219.381 37.588 220.641 34.6C221.973 35.896 222.981 37.372 224.097 38.92L224.817 39.892C226.113 41.44 228.165 44.248 228.525 46.588C228.705 48.388 229.209 51.268 231.189 51.268C233.925 51.268 235.617 47.38 235.905 46.588C236.229 45.508 236.373 44.608 236.553 43.96C237.525 41.152 238.029 39.64 238.677 37.12C239.397 34.348 240.513 31.036 241.089 28.084C241.161 27.508 242.925 21.532 240.153 21.532C238.065 21.532 236.049 24.412 235.545 25.996C234.573 28.876 233.997 31.792 233.061 34.636C232.917 35.068 232.737 35.536 232.269 36.904C230.541 34.708 228.957 32.476 227.085 30.172C225.537 28.3 225.249 27.688 224.961 27.004L224.925 27.04C224.277 25.42 223.629 23.8 221.037 23.8C218.697 23.8 216.969 26.176 216.357 28.012C215.853 29.56 215.493 31.072 214.737 32.908C213.873 35.068 212.937 38.02 211.749 40.612Z" fill="black"/>
<defs>
<filter id="filter0_d" x="0.5" y="0.5" width="311" height="91" filterUnits="userSpaceOnUse" color-interpolation-filters="sRGB">
<feFlood flood-opacity="0" result="BackgroundImageFix"/>
<feColorMatrix in="SourceAlpha" type="matrix" values="0 0 0 0 0 0 0 0 0 0 0 0 0 0 0 0 0 0 127 0"/>
<feOffset dx="8" dy="8"/>
<feGaussianBlur stdDeviation="2"/>
<feColorMatrix type="matrix" values="0 0 0 0 0.433333 0 0 0 0 0.433333 0 0 0 0 0.433333 0 0 0 0.66 0"/>
<feBlend mode="normal" in2="BackgroundImageFix" result="effect1_dropShadow"/>
<feBlend mode="normal" in="SourceGraphic" in2="effect1_dropShadow" result="shape"/>
</filter>
</defs>
</svg>
