<svg width="312" height="92" viewBox="0 0 312 92" fill="none" xmlns="http://www.w3.org/2000/svg">
<g filter="url(#filter0_d)">
<path d="M3 72.3607L297 77L287.269 3L7.7439 7.06657L3 72.3607Z" fill="#FFC300"/>
<path d="M3 72.3607L297 77L287.269 3L7.7439 7.06657L3 72.3607Z" stroke="#FFC300" stroke-width="5" stroke-linejoin="round"/>
</g>
<path d="M103.176 46.408C103.572 43.78 100.152 43.6 98.9639 43.6C97.6679 43.6 96.3359 43.528 94.8599 43.744L93.0239 43.924C94.6799 38.884 97.4519 33.988 99.2879 28.552C100.62 28.48 101.376 28.408 104.004 28.12C106.056 28.12 109.08 27.832 110.124 24.556C110.916 22.108 109.296 21.856 107.352 21.856C103.392 21.856 101.988 22.036 98.0639 22.504C96.3719 22.684 86.1839 23.872 84.8519 27.976C84.3119 29.596 85.1039 30.748 86.5079 30.748C87.3359 30.748 88.4159 30.388 89.1359 30.136C90.9719 29.56 91.1879 29.524 92.9879 29.308C92.5919 30.388 91.9799 31.36 91.5119 32.476L88.4519 39.46C87.8039 40.864 87.3719 42.412 86.6879 44.464C84.3479 44.968 78.7319 46.552 78.0119 49.036C77.5439 50.368 78.9479 51.7 80.5319 51.7C80.9639 51.7 81.5039 51.664 81.8999 51.556C85.5359 51.124 88.2359 50.296 92.0159 49.864C94.0319 49.612 94.4639 49.468 96.0839 49.504C98.4599 49.504 102.096 49.72 103.176 46.408ZM133.559 21.532C132.911 21.208 132.263 21.172 131.615 21.172C126.539 21.172 116.675 26.428 112.751 31.432C110.807 33.916 109.115 36.472 108.287 39.064C107.207 42.304 107.927 45.76 108.971 47.416C110.735 50.224 115.163 52.024 119.375 52.024C122.615 52.024 126.359 51.16 129.167 49.504V49.54L130.139 48.964C132.119 47.92 134.783 46.12 135.575 43.636C135.971 42.484 135.575 41.116 134.171 41.116C132.551 41.116 131.075 42.628 129.707 43.24C127.295 44.68 124.811 45.328 122.291 45.328C121.031 45.328 118.619 45.04 117.215 44.464C114.875 43.456 114.227 40.9 114.983 38.56C115.523 36.868 117.431 33.772 119.627 32.08C121.715 30.424 127.331 28.012 127.691 28.012C129.023 28.012 127.331 35.248 130.895 35.248C132.839 35.248 134.351 33.556 134.855 31.9C135.611 29.632 135.359 27.004 135.107 26.212C134.531 24.412 135.179 22.504 133.559 21.532ZM160.005 23.872C152.085 23.872 142.437 29.128 139.701 37.588C138.297 41.8 139.233 45.796 141.825 48.316C142.689 49.288 146.649 50.44 148.161 50.44C151.293 50.44 155.145 49.144 158.349 47.668C159.285 47.164 160.221 46.66 161.157 46.12L162.669 45.292C167.493 42.592 169.077 40.684 170.409 36.544C173.757 26.32 167.997 23.548 160.005 23.872ZM160.437 40.18C157.089 42.376 153.525 43.852 150.105 43.852C147.621 43.852 145.353 39.964 146.109 37.66C148.161 32.872 152.733 30.46 157.377 30.46C158.853 30.46 160.221 30.46 161.409 30.784C164.037 31.216 164.505 33.916 163.641 36.58C163.281 37.732 162.525 38.812 160.437 40.18ZM173.059 40.612C172.411 41.872 171.871 43.168 171.367 44.428C170.863 45.688 170.215 46.84 169.783 48.208C169.207 50.188 169.783 51.592 171.619 51.592C174.463 51.592 175.507 49.252 176.371 47.092L178.099 43.132C179.431 40.288 180.691 37.588 181.951 34.6C183.283 35.896 184.291 37.372 185.407 38.92L186.127 39.892C187.423 41.44 189.475 44.248 189.835 46.588C190.015 48.388 190.519 51.268 192.499 51.268C195.235 51.268 196.927 47.38 197.215 46.588C197.539 45.508 197.683 44.608 197.863 43.96C198.835 41.152 199.339 39.64 199.987 37.12C200.707 34.348 201.823 31.036 202.399 28.084C202.471 27.508 204.235 21.532 201.463 21.532C199.375 21.532 197.359 24.412 196.855 25.996C195.883 28.876 195.307 31.792 194.371 34.636C194.227 35.068 194.047 35.536 193.579 36.904C191.851 34.708 190.267 32.476 188.395 30.172C186.847 28.3 186.559 27.688 186.271 27.004L186.235 27.04C185.587 25.42 184.939 23.8 182.347 23.8C180.007 23.8 178.279 26.176 177.667 28.012C177.163 29.56 176.803 31.072 176.047 32.908C175.183 35.068 174.247 38.02 173.059 40.612ZM216.611 30.424C217.547 29.56 218.519 28.408 219.131 28.732C219.527 28.912 219.491 30.1 219.671 30.892C220.247 34.456 224.675 32.44 225.575 29.776C226.403 27.184 226.115 25.744 226.079 25.168C225.899 23.332 226.475 20.452 223.739 20.452C220.607 20.452 215.855 23.764 214.379 25.168C211.859 27.508 209.195 30.46 206.891 33.052C205.487 34.672 203.975 36.076 203.327 38.02C203.039 39.064 203.003 39.676 203.471 40.36C204.803 42.52 207.359 42.556 209.915 42.124C211.103 41.908 212.975 41.8 213.407 41.8C214.991 41.656 215.927 41.62 217.259 41.62C218.771 41.62 224.423 41.98 224.027 43.168C223.739 43.996 220.175 44.968 218.843 45.184C217.259 45.472 215.207 45.472 212.903 45.472C210.527 45.472 208.475 45.436 206.459 44.896C205.775 44.716 205.127 44.5 204.407 44.5C202.607 44.5 201.131 45.76 200.771 46.876C199.655 50.44 206.567 52.24 210.563 52.24C214.703 52.24 218.699 51.88 222.659 50.26C225.827 48.964 229.751 45.724 230.759 42.772C232.595 36.868 226.259 35.392 220.715 35.392C219.095 35.392 211.859 36.22 212.003 35.68C212.435 34.42 215.891 31.18 216.611 30.424Z" fill="black"/>
<defs>
<filter id="filter0_d" x="0.5" y="0.5" width="311" height="91" filterUnits="userSpaceOnUse" color-interpolation-filters="sRGB">
<feFlood flood-opacity="0" result="BackgroundImageFix"/>
<feColorMatrix in="SourceAlpha" type="matrix" values="0 0 0 0 0 0 0 0 0 0 0 0 0 0 0 0 0 0 127 0"/>
<feOffset dx="8" dy="8"/>
<feGaussianBlur stdDeviation="2"/>
<feColorMatrix type="matrix" values="0 0 0 0 0.433333 0 0 0 0 0.433333 0 0 0 0 0.433333 0 0 0 0.66 0"/>
<feBlend mode="normal" in2="BackgroundImageFix" result="effect1_dropShadow"/>
<feBlend mode="normal" in="SourceGraphic" in2="effect1_dropShadow" result="shape"/>
</filter>
</defs>
</svg>
