<svg width="406" height="559" viewBox="0 0 406 559" fill="none" xmlns="http://www.w3.org/2000/svg">
<path d="M167.846 325.97C158.439 313.604 161.427 301.098 162.39 288.745C162.983 281.173 165.566 273.804 167.258 266.342C169.716 266.62 188.434 180.096 190.636 179.781C199.672 178.489 275.041 193.796 345.243 208.252C369.022 216.538 384.188 230.905 399.759 245.101C406.414 251.169 406.988 256.676 401.99 262.433C396.593 268.649 390.313 274.355 382.198 278.926C370.371 285.587 364.043 293.822 364.048 305.382C364.053 321.936 347.046 333.825 323.2 334.173C310.284 334.363 303.672 338.212 300.14 345.942C297.595 351.504 295.2 357.15 290.819 362.111C287.055 366.377 282.573 370.179 275.894 372.393C270.728 374.107 265.041 374.491 259.986 371.657C238.713 359.726 214.087 351.56 192.578 339.86C184.222 335.317 177.161 329.624 167.846 325.97Z" fill="#515859"/>
<path d="M70.3037 224.75C65.8748 209.197 56.3278 196.881 47.6965 183.996C31.3639 159.62 23.5904 132.557 26.9784 102.664C30.9447 67.7091 49.3061 42.1886 75.3157 22.0409C91.0796 9.82726 109.002 4.61202 127.957 1.88397C144.776 -0.53375 160.935 1.87008 176.419 8.69251C186.309 13.0509 195.282 19.6001 204.019 26.0936C217.248 35.9266 223.672 51.1787 229.528 66.6669C234.699 80.3442 235.706 94.7533 236.733 109.181C237.542 120.603 238.101 132.043 238.771 143.474C238.689 145.461 237.513 146.378 235.962 147.235C231.268 149.833 227.981 153.927 226.839 159.42C225.904 163.918 223.682 166.664 219.682 167.975C216.564 166.641 213.962 167.327 211.595 169.925C209.306 172.44 206.646 174.538 203.711 176.136C192.974 181.981 182.289 187.942 171.427 193.519C165.817 196.4 159.952 198.84 153.523 198.817C153.513 198.234 153.499 197.65 153.484 197.071C158.482 193.296 163.316 189.313 167.258 184.265C169.976 180.786 173.055 179.049 177.441 180.508C181.349 181.805 184.68 180.328 187.634 177.382C197.986 167.049 201.022 154.154 199.446 139.588C198.655 132.265 196.496 125.924 189.427 122.881C188.651 122.548 187.875 121.798 187.446 121.019C184.487 115.642 179.711 113.368 174.376 111.881C171.928 111.196 169.619 110.066 167.547 108.454C161.388 103.665 154.762 99.6628 147.937 96.1521C122.275 82.9565 95.6579 78.3156 67.8025 86.9629C56.5928 90.4412 46.935 96.467 43.788 109.44C40.3085 123.775 39.2868 138.865 43.4169 152.857C50.0868 175.465 63.0941 193.681 82.7133 205.797C82.0242 207.826 81.7061 209.924 81.7495 212.082C79.788 214.662 77.8892 217.302 75.8362 219.799C74.2459 221.73 73.2579 224.523 70.3037 224.75Z" fill="#060D0E"/>
<path d="M246.27 183.61C246.259 196.858 246.506 210.078 248.232 223.146C248.336 223.921 248.483 224.686 248.544 225.466C249.194 233.391 248.792 233.986 243.424 235.526C230.652 239.198 217.613 240.075 204.776 243.077C202.838 243.53 200.754 243.497 198.823 242.999C195.591 242.169 192.498 241.966 189.391 243.815C188.634 244.268 187.654 243.958 186.779 244C187.209 236.26 187.722 228.524 188.017 220.775C188.113 218.206 189.244 218.003 190.413 217.79C199.042 216.236 207.33 212.703 215.507 208.685C225.001 204.021 233.777 197.324 241.857 188.772C243.475 187.06 244.544 185.045 244.522 182.065C244.985 182.125 245.448 182.18 245.907 182.24C246.029 182.697 246.148 183.153 246.27 183.61Z" fill="#060D0E"/>
<path d="M179.759 178.623C188.559 178.656 196.583 174.455 204.265 169.49C219.128 159.884 233.759 149.611 248.453 139.537C252.472 136.781 256.111 133.164 259.248 128.828C262.487 124.349 266.053 123.159 270.318 125.461C271.152 127.596 271.957 129.75 272.815 131.867C277.248 142.793 286.106 147.137 292.255 155.507C292.299 160.657 290.333 164.145 287.359 167.109C272.506 181.912 256.366 193.5 238.916 201.573C223.88 208.525 208.641 214.639 192.776 217.33C190.627 217.696 188.549 218.052 188.371 222.494C187.836 235.908 186.887 249.293 186.096 262.688C185.711 272.465 184.742 282.275 185.075 292.006C185.619 307.874 184.877 324.289 192.121 338.388C190.28 342.343 194.092 344.006 194.096 347.211C191.383 352.866 187.484 353.76 182.684 353.779C174.819 353.811 166.93 353.496 159.099 353.232C132.222 352.324 105.537 357.558 78.6892 356.956C65.6386 356.664 67.1229 357.79 66.9543 341.569C67.3109 321.033 70.3085 300.931 72.6314 280.733C73.9229 269.482 73.8506 269.561 65.4265 270.798C51.7928 272.799 38.2603 270.251 24.8386 267.222C18.9784 265.897 18.8579 259.45 19.3543 253.091H19.2627C20.2747 253.309 20.9687 252.748 21.3976 251.525C23.8844 245.935 26.3663 240.349 28.853 234.759C29.4265 233.323 30.082 231.938 30.5543 230.447C32.7615 223.518 35.9374 222.226 41.1567 225.537C49.4988 230.822 57.8796 229.558 65.8362 223.314C69.8844 222.925 71.2386 218.108 73.4265 214.764C76.2362 210.466 78.8289 205.908 81.5181 201.467C86.453 201.476 88.0964 208.182 91.9326 210.67C109.759 215.084 125.725 215.255 144.487 208.72C152.622 203.81 161.32 199.716 169.205 194.061C174.067 190.578 178.569 186.645 179.759 178.623Z" fill="#C8C8C8"/>
<path d="M66.9543 341.57C67.1181 357.79 65.6386 356.664 78.6892 356.956C105.537 357.558 132.222 352.324 159.099 353.232C166.93 353.496 174.819 353.811 182.684 353.779C187.48 353.76 191.378 352.866 194.096 347.211C200.631 368.197 206.964 389.299 213.749 410.137C222.212 436.143 234.072 459.51 245.855 482.9C246.255 489.699 242.993 492.835 238.949 494.813C233.557 497.448 228.53 501.051 223.557 504.798C220.699 506.952 217.971 509.282 214.53 509.092C205.34 495.202 197.055 480.297 189.528 464.799C179.075 443.276 165.798 424.314 157.537 400.836C156.501 397.895 154.781 398.076 152.921 398.293C138.766 399.952 124.617 401.661 110.458 403.226C107.547 403.546 106.829 404.991 108.26 408.428C113.427 420.831 117.306 434.18 123.345 445.953C123.778 451.303 122.998 455.346 118.559 457.417C109.595 461.599 100.776 466.346 91.894 470.862C89.8507 468.634 87.8314 466.527 86.2603 463.479C75.3446 442.266 64.1928 421.276 53.282 400.058C48.3856 390.54 43.629 380.642 45.629 368.174C48.1061 352.75 57.0844 346.433 66.9543 341.57Z" fill="#A2A2A2"/>
<path d="M289.547 151.454C288.877 151.292 288.202 151.13 287.532 150.968C283.393 145.414 276.699 141.834 274.183 135.026C273.696 133.706 273.253 132.372 272.79 131.047C277.398 130.426 280.284 128.092 282.053 123.808C284.207 118.574 288.492 115.086 294.077 113.312C295.923 112.724 297.364 112.02 297.778 110.07C305.908 107.648 307.277 108.306 309.581 116.031C309.904 117.115 310.361 117.745 311.441 117.888C316.154 118.528 319.672 120.436 321.677 124.979C323.86 129.931 323.932 134.859 322.54 139.819C321.012 145.252 317.301 148.555 311.489 150.268C304.173 152.427 296.978 153.084 289.547 151.454Z" fill="#AF7B63"/>
<path d="M214.53 509.087C217.966 509.277 220.699 506.947 223.557 504.794C228.525 501.047 233.557 497.443 238.949 494.808C242.988 492.83 246.251 489.699 245.855 482.895C249.817 483.386 251.33 486.939 251.908 491.668C252.699 498.12 251.831 504.196 249.533 509.898C242.121 528.29 231.937 543.209 218.709 554.297C218.019 554.876 217.316 555.441 216.574 555.872C211.981 558.535 207.234 560.823 202.921 555.524C198.386 549.957 198.578 542.935 200.656 535.844C203.692 525.46 209.446 517.577 214.53 509.087Z" fill="#535A5B"/>
<path d="M91.8892 470.858C100.766 466.342 109.586 461.594 118.554 457.412C122.993 455.341 123.773 451.303 123.34 445.948C128.829 449.306 128.757 455.402 127.61 461.937C126.067 470.742 122.039 477.699 118.096 484.706C111.783 495.929 104.482 505.831 96.2313 514.479C94.1108 516.702 91.8169 518.466 89.1807 519.221C82.6651 521.088 78.1687 515.252 79.6964 506.521C81.9663 493.571 86.4289 481.881 91.8892 470.858Z" fill="#545B5C"/>
<path d="M31.4554 235.421C28.6072 241.012 25.7639 246.597 22.9205 252.183C21.8506 252.155 20.9253 252.447 20.4723 253.749C20.4723 253.749 20.5735 253.749 20.5783 253.749C16.7904 252.54 12.8482 251.785 9.25305 250.029C2.30848 246.639 -0.665014 237.431 0.82896 225.449C1.71089 218.354 6.43859 213.523 14.0145 212.49C16.2699 212.184 17.7832 210.906 19.5326 209.516C25.1518 205.056 29.8747 208.122 30.3277 216.154C30.6844 222.582 28.9109 229.182 31.4554 235.421Z" fill="#AF7B63"/>
<path d="M124.424 167.767C125.335 168.123 126.318 168.007 127.263 168.146C139.634 169.962 148.733 179.54 149.552 191.536C149.817 195.418 148.814 199.1 147.918 202.81C145.923 211.077 143.754 219.308 141.986 227.621C140.145 236.278 143.046 243.443 150.231 248.987C150.747 249.386 150.988 249.4 151.412 248.821C155.354 243.448 162.414 242.202 167.99 245.884C169.904 247.149 171.258 248.867 172.135 250.942C172.28 251.285 172.222 251.757 172.675 251.956C172.829 253.29 172.983 254.624 173.137 255.958C172.723 256.139 172.858 256.528 172.81 256.824C171.855 262.678 166.501 266.778 160.308 266.379C154.342 265.995 149.533 261.233 149.504 255.43C149.494 253.851 148.974 253.021 147.716 252.063C139.036 245.449 135.749 236.797 138.043 226.403C140.173 216.76 142.68 207.196 144.916 197.571C148 184.302 137.614 171.912 123.46 171.884C112.024 171.861 102.333 180.619 101.672 191.564C101.59 192.907 101.624 194.241 101.778 195.575C102.867 204.977 103.937 214.38 105.036 223.782C105.364 226.603 106.569 229.053 108.627 231.091C114.434 236.834 120.246 242.577 126.082 248.297C126.593 248.797 126.588 249.14 126.106 249.576C125.441 250.173 124.704 250.696 124.145 251.4C123.595 251.725 123.32 251.303 123.012 251.002C118.781 246.829 114.554 242.651 110.323 238.478C109.181 237.353 108.034 236.222 106.892 235.097C105.046 233.281 103.118 233.453 101.73 235.606C97.9518 241.475 94.2024 247.357 90.4434 253.235C90.0964 253.776 89.7301 254.309 89.3976 254.86C89.2 255.189 88.9879 255.398 88.5783 255.18C87.706 254.573 86.8048 254.003 85.8458 253.531C85.3542 253.142 85.8361 252.855 86 252.595C90.0241 246.282 94.0241 239.956 98.1301 233.689C99.7976 231.142 101.051 228.52 101.031 225.459C101.031 225.06 100.998 224.657 100.954 224.259C99.8506 214.657 98.7325 205.061 97.6434 195.459C96.294 183.556 104.328 172.153 116.333 168.86C116.675 168.767 117.123 168.929 117.354 168.526C119.706 168.271 122.067 168.021 124.424 167.767ZM150.347 256.245C151.007 262.067 156.366 266.31 162.4 265.587C168.757 264.828 172.655 259.663 172.058 253.911C171.46 248.177 165.99 243.943 159.918 244.643C153.354 245.398 149.648 250.965 150.347 256.245Z" fill="#313131"/>
<path d="M85.8409 253.526C86.8048 253.999 87.7012 254.568 88.5735 255.175C87.7976 257.246 86.8193 259.237 85.9229 261.261C84.1349 265.286 82.4048 269.334 80.6024 273.35C78.6072 277.792 78.5157 282.391 79.4169 287.027C80.3373 291.761 82.5542 295.915 86.4337 299.028C89.5662 301.543 93.2 302.525 97.2578 301.302C96.9735 302.126 97.0217 302.914 97.5662 303.632C97.7638 303.891 98.0867 304.072 98.0337 304.456C96.2988 304.641 94.5638 304.827 92.8289 305.012C92.7903 304.776 92.6361 304.692 92.3952 304.665C88.0819 304.197 84.7614 302.029 81.9759 298.981C79.6241 296.406 78.0916 293.391 77.0169 290.149C76.9253 289.876 76.9735 289.51 76.506 289.533C76.4819 289.334 76.4578 289.135 76.4385 288.931C76.694 288.699 76.6554 288.505 76.3711 288.329C76.0867 285.86 75.8024 283.391 75.5181 280.927C75.759 280.881 75.8699 280.742 75.8699 280.506C75.8747 276.93 77.0024 273.632 78.4819 270.399C80.8337 265.235 83.1084 260.043 85.4072 254.856C85.6 254.43 85.8458 254.013 85.8409 253.526Z" fill="white"/>
<path d="M124.145 251.4C124.704 250.696 125.441 250.173 126.106 249.575C126.853 249.659 127.07 250.307 127.422 250.77C131.195 255.768 134.988 260.752 138.689 265.795C140.713 268.551 141.995 271.622 142.718 274.957C143.86 280.205 143.677 285.323 141.663 290.329C139.995 294.479 137.296 297.823 133.113 299.945C132.573 300.218 128.347 301.232 126.752 301.404C126.679 301.135 126.713 300.829 126.453 300.626C126.67 299.792 126.67 298.981 126.164 298.231C129.157 298.472 131.769 297.606 134.087 295.785C136.723 293.72 138.231 290.982 139.277 287.953C140.679 283.901 140.573 279.765 139.749 275.656C139.157 272.692 137.928 269.918 136.072 267.43C132.087 262.095 128.12 256.745 124.145 251.4Z" fill="white"/>
<path d="M98.0384 304.456C98.0914 304.072 97.7686 303.886 97.571 303.632C97.0264 302.914 96.9782 302.126 97.2625 301.302C98.6312 299.898 100.472 299.519 102.323 299.324C103.422 299.208 104.26 300.098 104.443 301.163C104.631 302.247 104.048 303.247 103.017 303.692C102.747 303.808 102.357 303.646 102.202 304.016C100.81 304.16 99.4216 304.308 98.0384 304.456Z" fill="#313131"/>
<path d="M126.169 298.231C126.675 298.981 126.679 299.792 126.458 300.626C126.145 301.024 125.759 301.33 125.296 301.557C124.323 301.659 123.354 301.765 122.381 301.867C122.169 301.561 121.875 301.765 121.624 301.77C120.217 301.802 119.142 300.843 119.123 299.505C119.099 298.18 120.178 297.11 121.59 297.245C123.147 297.397 124.819 297.143 126.169 298.231Z" fill="#313131"/>
<path d="M125.296 301.556C125.754 301.33 126.145 301.024 126.458 300.625C126.718 300.829 126.684 301.135 126.757 301.404C126.27 301.455 125.783 301.506 125.296 301.556Z" fill="#D0CDC4"/>
<path d="M150.347 256.245C149.643 250.965 153.354 245.398 159.918 244.643C165.995 243.943 171.46 248.177 172.058 253.911C172.655 259.663 168.757 264.828 162.4 265.587C156.366 266.31 151.007 262.072 150.347 256.245ZM170.019 254.193C169.465 249.446 165.142 246.074 160.26 246.588C155.296 247.111 151.773 251.312 152.318 256.069C152.858 260.793 157.272 264.137 162.26 263.6C167.079 263.081 170.559 258.862 170.019 254.193Z" fill="white"/>
<path d="M170.019 254.193C170.564 258.862 167.084 263.081 162.265 263.6C157.277 264.137 152.863 260.793 152.323 256.069C151.778 251.312 155.301 247.112 160.265 246.588C165.142 246.074 169.465 249.446 170.019 254.193ZM154.077 255.467C154.376 259.432 157.899 262.257 162.116 261.919C165.581 261.641 168.622 258.13 168.318 254.749C167.966 250.803 164.564 248.038 160.357 248.288C156.853 248.487 153.807 251.961 154.077 255.467Z" fill="#313131"/>
<path d="M154.077 255.467C153.812 251.965 156.853 248.487 160.361 248.283C164.569 248.038 167.971 250.803 168.323 254.744C168.622 258.125 165.586 261.636 162.121 261.914C157.899 262.257 154.376 259.432 154.077 255.467Z" fill="white"/>
<path d="M82.7182 205.793C63.1038 193.676 50.0917 175.46 43.4218 152.853C39.2917 138.86 40.3134 123.771 43.7929 109.436C46.9447 96.4623 56.5977 90.4411 67.8074 86.9581C95.6676 78.3108 122.284 82.9518 147.942 96.1474C154.771 99.6582 161.393 103.66 167.552 108.449C169.624 110.061 171.933 111.196 174.381 111.876C179.716 113.363 184.492 115.637 187.451 121.015C187.88 121.793 188.656 122.543 189.431 122.877C196.501 125.92 198.66 132.265 199.451 139.583C201.022 154.154 197.99 167.049 187.639 177.377C184.684 180.328 178.853 188.22 174.945 186.923C170.559 185.464 171.296 188.257 167.798 190.263C162.154 193.495 158.482 193.296 153.484 197.071C149.436 194.135 145.937 195.682 142.328 198.303C140.14 199.896 137.634 201.115 135.123 202.05C123.75 206.302 112.501 210.614 99.9278 207.826C94.3616 206.594 88.7616 203.264 82.7182 205.793Z" fill="#AF7B63"/>
<path d="M78.1446 201.504C86.8626 197.933 95.4361 201.221 103.793 202.074C122.636 204 138.892 197.812 155.335 191.68C158.964 190.328 162.564 188.646 165.658 186.567C170.761 183.139 175.798 180.972 182.048 183.964C182.116 184.64 182.188 185.316 182.255 185.992C181.383 191.495 176.723 194.492 171.658 197.21C163.427 201.629 155.436 206.423 146.896 210.355C128.251 218.951 108.94 220.776 89.0072 214.32C84.7325 212.935 82.6072 208.535 77.2771 208.905C77.0217 206.404 77.306 203.935 78.1446 201.504Z" fill="#535A5B"/>
<path d="M192.5 132C174.9 132 92 110.333 74 82.5L168.5 63.5L218.5 159C212.833 159 210.1 132 192.5 132Z" fill="#060D0E"/>
</svg>
