<svg width="2785" height="1646" viewBox="0 0 2785 1646" fill="none" xmlns="http://www.w3.org/2000/svg">
<path d="M1594.96 0L1532.21 334.262L1626.62 0H1594.96Z" fill="#A5AFD6"/>
<path d="M1917.11 0L1657.58 460.383L1965.46 0H1917.11Z" fill="#A5AFD6"/>
<path d="M599.192 0L1165.34 583.079L668.734 0H599.192Z" fill="#A5AFD6"/>
<path d="M0 1545.76V1567.45L31.3111 1588.48L1070.85 1032.33L0 1545.76Z" fill="#A5AFD6"/>
<path d="M0 1011.44V1037.13L769.5 928.378L0 1011.44Z" fill="#A5AFD6"/>
<path d="M2785 628.989L2104.2 745.12L2785 652.063V628.989Z" fill="#A5AFD6"/>
<path d="M978.731 1623.69L1253.22 1123.58L926.531 1623.69H978.731Z" fill="#A5AFD6"/>
<path d="M559.405 1623.69L1029.55 1209.12L501.843 1623.69H559.405Z" fill="#A5AFD6"/>
<path d="M2785 412.285L1916.42 701.826L2785 447.728V412.285Z" fill="#A5AFD6"/>
<path d="M1525.72 1623.69L1464.05 1270.11L1492.64 1623.69H1525.72Z" fill="#A5AFD6"/>
<path d="M2785 1219.59L1819.89 972.148L2785 1256.98V1219.59Z" fill="#A5AFD6"/>
<path d="M0 113.99V172.174L980.331 640.026L0 113.99Z" fill="#A5AFD6"/>
<path d="M2785 1129.34L1900.03 961.11L2785 1160.93V1129.34Z" fill="#A5AFD6"/>
<path d="M0 698.068V726.185L860.709 802.114L0 698.068Z" fill="#A5AFD6"/>
<path d="M2785 102.429L2753.78 83.2563L1746.8 673.567L2785 127.644V102.429Z" fill="#A5AFD6"/>
<path d="M0 236.02V275.745L838.393 611.529L0 236.02Z" fill="#A5AFD6"/>
<path d="M2345.35 1623.69L1844.15 1224.48L2290.47 1623.69H2345.35Z" fill="#A5AFD6"/>
<path d="M1744.81 1623.69L1593.32 1262.59L1709.65 1623.69H1744.81Z" fill="#A5AFD6"/>
<path d="M1878.45 1623.69L1622.47 1194.28L1832.09 1623.69H1878.45Z" fill="#A5AFD6"/>
<path d="M0 713.149V738.982L793.935 801.21L0 713.149Z" fill="#A5AFD6"/>
<path d="M1701.83 0L1539.35 513.715L1751.78 0H1701.83Z" fill="#A5AFD6"/>
<path d="M0 1560.7V1592.38L569.697 1287.05L0 1560.7Z" fill="#A5AFD6"/>
<path d="M2785 1495.09L1754.24 1024.86L2785 1550.09V1495.09Z" fill="#A5AFD6"/>
<path d="M1469.8 0L1454.06 454.769L1512.19 0H1469.8Z" fill="#A5AFD6"/>
<path d="M2785 934.944L2021.12 898.502L2785 959.446V934.944Z" fill="#A5AFD6"/>
<path d="M1409.17 1623.69L1415.05 1152.36L1365.41 1623.69H1409.17Z" fill="#A5AFD6"/>
<path d="M2550.95 1623.69L1960.45 1257.17L2489.84 1623.69H2550.95Z" fill="#A5AFD6"/>
<path d="M98.2579 0L1051.86 612.1L197.381 0H98.2579Z" fill="#A5AFD6"/>
<path d="M0 326.507V347.773L479.397 514.714L0 326.507Z" fill="#A5AFD6"/>
<path d="M2785 517.759L1871.62 750.877L2785 551.49V517.759Z" fill="#A5AFD6"/>
<path d="M2603.84 0L1865.3 554.534L2692.28 0H2603.84Z" fill="#A5AFD6"/>
<path d="M1091.22 1641.86L1301.23 1124.25L1040.36 1646L1091.22 1641.86Z" fill="#A5AFD6"/>
<path d="M2785 875.809L2034.57 872.383L2785 899.596V875.809Z" fill="#A5AFD6"/>
<path d="M2671.13 1623.69L1713.16 1050.22L2572.31 1623.69H2671.13Z" fill="#A5AFD6"/>
<path d="M0 935.991V948.884L403.282 918.769L0 935.991Z" fill="#A5AFD6"/>
<path d="M0 345.395V383.74L888.647 676.327L0 345.395Z" fill="#A5AFD6"/>
<path d="M1628.31 1623.69L1510.37 1195.99L1587.83 1623.69H1628.31Z" fill="#A5AFD6"/>
<path d="M2185.51 1623.69L1677.61 1133.05L2125.18 1623.69H2185.51Z" fill="#A5AFD6"/>
<path d="M0 520.803V546.113L691.698 693.358L0 520.803Z" fill="#A5AFD6"/>
<path d="M2013.38 1623.69L1730.89 1278.48L1974.93 1623.69H2013.38Z" fill="#A5AFD6"/>
<path d="M0 548.54V571.804L649.662 698.068L0 548.54Z" fill="#A5AFD6"/>
<path d="M2785 793.027L2137.16 829.898L2785 813.627V793.027Z" fill="#A5AFD6"/>
<path d="M1319.56 0L1386.34 530.081L1368.95 0H1319.56Z" fill="#A5AFD6"/>
<path d="M0 616.952V650.398L982.104 790.934L0 616.952Z" fill="#A5AFD6"/>
<path d="M2785 351.531L1805.58 720.095L2785 394.016V351.531Z" fill="#A5AFD6"/>
<path d="M2785 1623.69V1593.19L2258.55 1321.4L2783.66 1623.69H2785Z" fill="#A5AFD6"/>
<path d="M2785 43.626L2029.77 503.343L2785 90.9155V43.626Z" fill="#A5AFD6"/>
<path d="M2464.02 0L1845.58 517.093L2538.4 0H2464.02Z" fill="#A5AFD6"/>
<path d="M2785 1442.52L1784.34 1024.48L2785 1492.43V1442.52Z" fill="#A5AFD6"/>
<path d="M348.271 0L1097.79 584.364L424.516 0H348.271Z" fill="#A5AFD6"/>
<path d="M0 0V41.3903L919.396 560.624L31.4841 0H0Z" fill="#A5AFD6"/>
<path d="M0 438.451V464.855L669.729 645.307L0 438.451Z" fill="#A5AFD6"/>
<path d="M0 1554.56V1590.62L650.484 1243.85L0 1554.56Z" fill="#A5AFD6"/>
<path d="M2785 415.805L2069.13 654.251L2785 444.969V415.805Z" fill="#A5AFD6"/>
<path d="M0 1420.68V1468.59L950.793 1033.61L0 1420.68Z" fill="#A5AFD6"/>
<path d="M0 316.945V339.876L510.838 520.756L0 316.945Z" fill="#A5AFD6"/>
<path d="M797.179 1623.69L1159.46 1160.4L743.768 1623.69H797.179Z" fill="#A5AFD6"/>
<path d="M0 1072.34V1100.03L792.465 967.057L0 1072.34Z" fill="#A5AFD6"/>
<path d="M0 753.208V761.105L244.607 774.95L0 753.208Z" fill="#A5AFD6"/>
<path d="M0 917.674V944.649L843.842 888.416L0 917.674Z" fill="#A5AFD6"/>
<path d="M1307.76 1623.69L1361.6 1164.78L1264.68 1623.69H1307.76Z" fill="#A5AFD6"/>
<path d="M0 1325.3V1351.56L626.265 1130.1L0 1325.3Z" fill="#A5AFD6"/>
<path d="M730.664 0L1086.46 417.709L777.847 0H730.664Z" fill="#A5AFD6"/>
<path d="M2785 766.529L2636.79 778.708L2785 771.286V766.529Z" fill="#A5AFD6"/>
<path d="M0 1258.64V1299.13L1015.45 977.238L0 1258.64Z" fill="#A5AFD6"/>
<path d="M0 588.503V599.873L326.042 655.536L0 588.503Z" fill="#A5AFD6"/>
<path d="M173.811 1623.69L1064.19 1065.87L71.6606 1623.69H173.811Z" fill="#A5AFD6"/>
<path d="M2785 1320.54L1802.85 996.887L2785 1362.93V1320.54Z" fill="#A5AFD6"/>
<path d="M2785 261.996L1944.57 635.745L2785 302.435V261.996Z" fill="#A5AFD6"/>
<path d="M913.557 0L1171.61 432.314L957.842 0H913.557Z" fill="#A5AFD6"/>
<path d="M861.012 1623.69L1058.78 1335.72L829.225 1623.69H861.012Z" fill="#A5AFD6"/>
<path d="M2785 649.256L2361.31 719.144L2785 663.528V649.256Z" fill="#A5AFD6"/>
<path d="M0 346.679V368.136L494.707 533.554L0 346.679Z" fill="#A5AFD6"/>
<path d="M1161.15 0L1325.96 539.167L1212.4 0H1161.15Z" fill="#A5AFD6"/>
<path d="M2216.95 0L1689.54 575.229L2282.47 0H2216.95Z" fill="#A5AFD6"/>
<path d="M2785 1121.39L2341.8 1042.18L2785 1137.04V1121.39Z" fill="#A5AFD6"/>
<path d="M328.81 1623.69L1077.68 1121.72L242.661 1623.69H328.81Z" fill="#A5AFD6"/>
<path d="M1215.38 1623.69L1325.14 1162.73L1171.35 1623.69H1215.38Z" fill="#A5AFD6"/>
<path d="M2785 929.568L2392.57 914.058L2785 942.127V929.568Z" fill="#A5AFD6"/>
<path d="M0 786.701V815.341L900.453 838.415L0 786.701Z" fill="#A5AFD6"/>
<path d="M0 853.353V877.379L757.823 862.297L0 853.353Z" fill="#A5AFD6"/>
<path d="M2393.48 0L1949.72 401.105L2448.28 0H2393.48Z" fill="#A5AFD6"/>
<path d="M0 944.982V967.343L695.158 908.635L0 944.982Z" fill="#A5AFD6"/>
<path d="M0 1167.87V1202.6L947.939 966.533L0 1167.87Z" fill="#A5AFD6"/>
<path d="M0 386.547V418.66L775.252 653.728L0 386.547Z" fill="#A5AFD6"/>
<path d="M2383.15 0L2080.15 279.17L2420.86 0H2383.15Z" fill="#A5AFD6"/>
<path d="M2785 394.777L2440.23 516.997L2785 409.288V394.777Z" fill="#A5AFD6"/>
<path d="M2785 777.756L2657.98 787.176L2785 781.8V777.756Z" fill="#A5AFD6"/>
<path d="M2785 1073.01L2645.14 1053.41L2785 1077.76V1073.01Z" fill="#A5AFD6"/>
<path d="M2785 739.173L2499.31 767.909L2785 748.403V739.173Z" fill="#A5AFD6"/>
<path d="M2785 1086.23L2699.59 1073.48L2785 1089.13V1086.23Z" fill="#A5AFD6"/>
<path d="M2038.94 0L1682.32 504.438L2095.12 0H2038.94Z" fill="#A5AFD6"/>
<path d="M0 724.901V733.084L251.656 752.304L0 724.901Z" fill="#A5AFD6"/>
<path d="M1025.01 0L1197 361.285L1060.68 0H1025.01Z" fill="#A5AFD6"/>
<path d="M2785 688.22L1898.13 804.112L2785 717.383V688.22Z" fill="#A5AFD6"/>
<path d="M2785 1024.43L1866.9 919.292L2785 1054.98V1024.43Z" fill="#A5AFD6"/>
<path d="M2785 1336.05L1829.67 1010.92L2785 1377.96V1336.05Z" fill="#A5AFD6"/>
<path d="M2785 1513.98L2146.06 1218.54L2785 1548.42V1513.98Z" fill="#A5AFD6"/>
<path d="M2785 844.932L1855.92 859.681L2785 874.381V844.932Z" fill="#A5AFD6"/>
</svg>
