<svg width="574" height="174" viewBox="0 0 574 174" fill="none" xmlns="http://www.w3.org/2000/svg">
<mask id="path-1-outside-1" maskUnits="userSpaceOnUse" x="0.75" y="0.6875" width="574" height="173" fill="black">
<rect fill="white" x="0.75" y="0.6875" width="574" height="173"/>
<path d="M30.0312 25.7812C29.5312 27.5938 29.0938 29.375 28.7188 31.125L27.6875 36.2812L42.6875 33.0938L41.8438 46.0312C34.7188 47.2812 29.125 48.375 25.0625 49.3125C24.8125 50.5625 24.5938 51.8125 24.4062 53.0625L23.75 56.7188L41.1875 54.1875L39.9688 71.625C30.9688 72.375 19.5625 74.5312 5.75 78.0938L16.9062 10.875L48.125 6.375L46.9062 23.7188C40.7812 24.2812 35.1562 24.9688 30.0312 25.7812Z"/>
<path d="M91.25 8.8125C83.8125 29.1875 77.1562 51.0312 71.2812 74.3438L46.3438 78.8438C47.9062 69.9688 48.875 59.1562 49.25 46.4062C49.4375 35.5312 49.625 24.6562 49.8125 13.7812L68.5625 9.5625L60.5 69.375H60.5938L74.2812 11.9062L91.25 8.8125Z"/>
<path d="M101.938 25.7812C101.438 27.5938 101 29.375 100.625 31.125L99.5938 36.2812L114.594 33.0938L113.75 46.0312C106.625 47.2812 101.031 48.375 96.9688 49.3125C96.7188 50.5625 96.5 51.8125 96.3125 53.0625L95.6562 56.7188L113.094 54.1875L111.875 71.625C102.875 72.375 91.4688 74.5312 77.6562 78.0938L88.8125 10.875L120.031 6.375L118.812 23.7188C112.688 24.2812 107.062 24.9688 101.938 25.7812Z"/>
<path d="M123.781 11.7188C133.594 8.78125 141.625 7.3125 147.875 7.3125C156.312 7.3125 160.5 10.25 160.438 16.125C160.375 24.5625 155.062 33.0312 144.5 41.5312C145.375 43.9062 149 51.375 155.375 63.9375C152.125 66.9375 147.219 71.3438 140.656 77.1562L130.625 51.2812H130.531C129.031 59.4688 127.906 67.0312 127.156 73.9688L112.344 78.0938C112.469 76.7188 113.156 72.5625 114.406 65.625L123.781 11.7188ZM135.594 26.5312C135.031 28.6562 134.531 30.7812 134.094 32.9062L132.781 39.2812C134.969 38.1562 137.125 36.6875 139.25 34.875C141.688 32.75 143.312 30.7188 144.125 28.7812C144.438 28.2188 144.594 27.6875 144.594 27.1875C144.594 25.8125 143.688 25.125 141.875 25.125C140.438 25.125 138.344 25.5938 135.594 26.5312Z"/>
<path d="M186.688 10.4062L201.781 13.0312C188.281 36.7188 177.594 58.1562 169.719 77.3438L155.281 76.4062L165.219 55.5L157.344 17.8125L175.625 9.375C175.438 12.25 175.312 15.8438 175.25 20.1562C175.188 24.4688 175.406 28.7812 175.906 33.0938L186.688 10.4062Z"/>
<path d="M197.844 11.7188C205.031 9.34375 211.125 8.15625 216.125 8.15625C221.75 8.15625 226.031 9.625 228.969 12.5625C233.031 16.75 235.062 21.8438 235.062 27.8438C235.062 30.0312 234.781 32.3438 234.219 34.7812C231.781 45.7812 226.031 55.4062 216.969 63.6562C207.906 71.8438 197.812 76.6562 186.688 78.0938C186.812 76.7188 187.469 72.625 188.656 65.8125L196.156 22.6875C197.219 16.25 197.781 12.5938 197.844 11.7188ZM211.25 27.1875C208.375 39.4375 206.188 51.0312 204.688 61.9688C208.438 58.4062 211.781 54.2812 214.719 49.5938C218.344 43.8438 220.156 38.9062 220.156 34.7812C220.156 29.4688 217.188 26.9375 211.25 27.1875Z"/>
<path d="M220.156 79.2188C229.344 55.7812 236.781 33.1875 242.469 11.4375L270.969 6.65625C267.719 25.5938 266.25 48 266.562 73.875L246.688 78.4688L248.094 66.75L241.812 67.9688L239.844 76.2188L220.156 79.2188ZM249.594 54.1875L253.906 18.75H253.812L245 55.0312L249.594 54.1875Z"/>
<path d="M301.344 10.4062L316.438 13.0312C302.938 36.7188 292.25 58.1562 284.375 77.3438L269.938 76.4062L279.875 55.5L272 17.8125L290.281 9.375C290.094 12.25 289.969 15.8438 289.906 20.1562C289.844 24.4688 290.062 28.7812 290.562 33.0938L301.344 10.4062Z"/>
<path d="M340.688 11.8125L358.031 8.8125C354.906 20.75 352.375 31.625 350.438 41.4375L358.219 39.8438L363 11.8125L380.344 8.8125C373.719 34.375 369.531 56.0938 367.781 73.9688L351.656 78.0938L355.969 52.5938C354.219 52.9688 351.562 53.5312 348 54.2812C346.812 61.9688 345.969 68.5312 345.469 73.9688L329.344 78.0938L340.688 11.8125Z"/>
<path d="M394.312 25.7812C393.812 27.5938 393.375 29.375 393 31.125L391.969 36.2812L406.969 33.0938L406.125 46.0312C399 47.2812 393.406 48.375 389.344 49.3125C389.094 50.5625 388.875 51.8125 388.688 53.0625L388.031 56.7188L405.469 54.1875L404.25 71.625C395.25 72.375 383.844 74.5312 370.031 78.0938L381.188 10.875L412.406 6.375L411.188 23.7188C405.062 24.2812 399.438 24.9688 394.312 25.7812Z"/>
<path d="M416.156 11.7188C425.969 8.78125 434 7.3125 440.25 7.3125C448.688 7.3125 452.875 10.25 452.812 16.125C452.75 24.5625 447.438 33.0312 436.875 41.5312C437.75 43.9062 441.375 51.375 447.75 63.9375C444.5 66.9375 439.594 71.3438 433.031 77.1562L423 51.2812H422.906C421.406 59.4688 420.281 67.0312 419.531 73.9688L404.719 78.0938C404.844 76.7188 405.531 72.5625 406.781 65.625L416.156 11.7188ZM427.969 26.5312C427.406 28.6562 426.906 30.7812 426.469 32.9062L425.156 39.2812C427.344 38.1562 429.5 36.6875 431.625 34.875C434.062 32.75 435.688 30.7188 436.5 28.7812C436.812 28.2188 436.969 27.6875 436.969 27.1875C436.969 25.8125 436.062 25.125 434.25 25.125C432.812 25.125 430.719 25.5938 427.969 26.5312Z"/>
<path d="M480.562 4.6875C487.188 4.6875 491.875 8.375 494.625 15.75C496.062 19.5625 496.781 23.75 496.781 28.3125C496.781 32.6875 496.125 37.4375 494.812 42.5625C492.5 51.3125 488.5 59.375 482.812 66.75C475.875 75.75 468.531 80.25 460.781 80.25C454.094 80.25 449.344 76.5625 446.531 69.1875C445.156 65.5625 444.469 61.5 444.469 57C444.469 52.5625 445.156 47.75 446.531 42.5625C448.844 33.75 452.812 25.6562 458.438 18.2812C465.375 9.21875 472.75 4.6875 480.562 4.6875ZM477.188 27.9375C473.75 27.9375 470.25 30.75 466.688 36.375C463.812 40.8125 461.812 45.1562 460.688 49.4062C460.125 51.6562 459.844 53.6875 459.844 55.5C459.844 58.0625 460.469 60.1562 461.719 61.7812C463.156 63.5938 465.156 64.5 467.719 64.5C471.219 64.5 474.375 62.6562 477.188 58.9688C479.438 56.0312 481.062 52.5625 482.062 48.5625C483.25 43.875 483.5 39.25 482.812 34.6875C482.062 30.1875 480.188 27.9375 477.188 27.9375Z"/>
<path d="M513.562 25.7812C513.062 27.5938 512.625 29.375 512.25 31.125L511.219 36.2812L526.219 33.0938L525.375 46.0312C518.25 47.2812 512.656 48.375 508.594 49.3125C508.344 50.5625 508.125 51.8125 507.938 53.0625L507.281 56.7188L524.719 54.1875L523.5 71.625C514.5 72.375 503.094 74.5312 489.281 78.0938L500.438 10.875L531.656 6.375L530.438 23.7188C524.312 24.2812 518.688 24.9688 513.562 25.7812Z"/>
<path d="M569.344 28.4062C567.344 29.1562 564.969 30.0625 562.219 31.125L555.188 33.8438C555.188 30.9062 554.375 29.4375 552.75 29.4375C550.438 29.4375 548.125 30.75 545.812 33.375C544.188 35.3125 543.5 37.1875 543.75 39C543.938 40.1875 545.125 40.7812 547.312 40.7812C548.5 40.7812 550.062 40.5938 552 40.2188C554.688 39.6562 557.062 39.375 559.125 39.375C564.375 39.375 567.438 41.1875 568.312 44.8125C568.562 45.9375 568.688 47.125 568.688 48.375C568.688 52.375 567.188 56.6875 564.188 61.3125C560.312 67.375 554.875 72.4688 547.875 76.5938C544.188 78.7812 540.562 79.875 537 79.875C533.75 79.875 530.562 78.9688 527.438 77.1562C529 73.4062 531.5 67.875 534.938 60.5625C536.938 61.9375 539.062 62.625 541.312 62.625C542.312 62.625 543.344 62.4688 544.406 62.1562C546.344 61.6562 548.188 60.9375 549.938 60C552.438 58.625 553.688 57.2188 553.688 55.7812C553.688 54.2188 552.406 53.4375 549.844 53.4375C548.094 53.4375 545.531 53.8125 542.156 54.5625C538.844 55.25 536.312 55.5938 534.562 55.5938C532.25 55.5938 530.469 55.1562 529.219 54.2812C526.781 52.6562 525.781 50.125 526.219 46.6875C527.031 39.75 531.5 31.7188 539.625 22.5938C547.938 13.2188 555.094 8.3125 561.094 7.875C566.906 7.5 569.812 11.875 569.812 21C569.812 23.1875 569.656 25.6562 569.344 28.4062Z"/>
<path d="M131.781 96.8125L149.125 93.8125C146 105.75 143.469 116.625 141.531 126.438L149.312 124.844L154.094 96.8125L171.438 93.8125C164.812 119.375 160.625 141.094 158.875 158.969L142.75 163.094L147.062 137.594C145.312 137.969 142.656 138.531 139.094 139.281C137.906 146.969 137.062 153.531 136.562 158.969L120.438 163.094L131.781 96.8125Z"/>
<path d="M154.375 164.219C163.562 140.781 171 118.188 176.688 96.4375L205.188 91.6562C201.938 110.594 200.469 133 200.781 158.875L180.906 163.469L182.312 151.75L176.031 152.969L174.062 161.219L154.375 164.219ZM183.812 139.188L188.125 103.75H188.031L179.219 140.031L183.812 139.188Z"/>
<path d="M234.25 92.2188C240.75 92.2188 245.531 95.75 248.594 102.812L238 114.438C236.562 112.938 234.906 112.188 233.031 112.188C229.719 112.188 226.281 115.031 222.719 120.719C219.781 125.406 217.875 129.781 217 133.844C216.562 135.781 216.344 137.531 216.344 139.094C216.344 143.281 217.875 146.156 220.938 147.719C221.938 148.219 223 148.469 224.125 148.469C227.375 148.469 230.781 146.062 234.344 141.25L237.344 152.406C231.156 159.281 224.875 162.719 218.5 162.719C212 162.719 207.25 159.281 204.25 152.406C202.438 148.406 201.531 143.938 201.531 139C201.531 135.375 202 131.531 202.938 127.469C204.812 119.156 208.375 111.562 213.625 104.688C219.938 96.375 226.812 92.2188 234.25 92.2188Z"/>
<path d="M249.156 96.8125L265.281 93.8125C263.844 99.3125 262.781 103.656 262.094 106.844C267.531 102.094 272.5 97.5312 277 93.1562L288.812 100.844L270.344 117.25L280.75 155.406L263.781 164.406L257.219 129.062C255.281 139.125 253.75 149.094 252.625 158.969L237.719 163.094L249.156 96.8125Z"/>
<path d="M271.75 164.219C280.938 140.781 288.375 118.188 294.062 96.4375L322.562 91.6562C319.312 110.594 317.844 133 318.156 158.875L298.281 163.469L299.688 151.75L293.406 152.969L291.438 161.219L271.75 164.219ZM301.188 139.188L305.5 103.75H305.406L296.594 140.031L301.188 139.188Z"/>
<path d="M363.344 92.875L362.781 110.312C358.406 110.562 354.25 110.875 350.312 111.25C346.188 128.562 343.406 144.469 341.969 158.969L326.125 163.094L334.75 113.219C333.062 113.469 331.375 113.75 329.688 114.062L324.719 115L323.594 97.4688L363.344 92.875Z"/>
<path d="M363.062 96.8125L380.406 93.8125C377.281 105.75 374.75 116.625 372.812 126.438L380.594 124.844L385.375 96.8125L402.719 93.8125C396.094 119.375 391.906 141.094 390.156 158.969L374.031 163.094L378.344 137.594C376.594 137.969 373.938 138.531 370.375 139.281C369.188 146.969 368.344 153.531 367.844 158.969L351.719 163.094L363.062 96.8125Z"/>
<path d="M430.094 89.6875C436.719 89.6875 441.406 93.375 444.156 100.75C445.594 104.562 446.312 108.75 446.312 113.312C446.312 117.688 445.656 122.438 444.344 127.562C442.031 136.312 438.031 144.375 432.344 151.75C425.406 160.75 418.062 165.25 410.312 165.25C403.625 165.25 398.875 161.562 396.062 154.188C394.688 150.562 394 146.5 394 142C394 137.562 394.688 132.75 396.062 127.562C398.375 118.75 402.344 110.656 407.969 103.281C414.906 94.2188 422.281 89.6875 430.094 89.6875ZM426.719 112.938C423.281 112.938 419.781 115.75 416.219 121.375C413.344 125.812 411.344 130.156 410.219 134.406C409.656 136.656 409.375 138.688 409.375 140.5C409.375 143.062 410 145.156 411.25 146.781C412.688 148.594 414.688 149.5 417.25 149.5C420.75 149.5 423.906 147.656 426.719 143.969C428.969 141.031 430.594 137.562 431.594 133.562C432.781 128.875 433.031 124.25 432.344 119.688C431.594 115.188 429.719 112.938 426.719 112.938Z"/>
<path d="M451.844 97.0938L468.062 93.8125C467.938 95.75 467.875 98.5 467.875 102.062C467.875 110.562 468.156 118.031 468.719 124.469C469.031 128.156 469.5 131.125 470.125 133.375L476.5 96.8125L492.625 93.8125C486.125 118.875 481.875 140.594 479.875 158.969L465.062 163.094C465 162.969 464.594 161.875 463.844 159.812L458.969 145.938C458.156 143.688 457.688 142.25 457.562 141.625C456.25 149 455.219 156.156 454.469 163.094L439.469 167.594L451.844 97.0938Z"/>
</mask>
<path d="M30.0312 25.7812C29.5312 27.5938 29.0938 29.375 28.7188 31.125L27.6875 36.2812L42.6875 33.0938L41.8438 46.0312C34.7188 47.2812 29.125 48.375 25.0625 49.3125C24.8125 50.5625 24.5938 51.8125 24.4062 53.0625L23.75 56.7188L41.1875 54.1875L39.9688 71.625C30.9688 72.375 19.5625 74.5312 5.75 78.0938L16.9062 10.875L48.125 6.375L46.9062 23.7188C40.7812 24.2812 35.1562 24.9688 30.0312 25.7812Z" fill="#FFC300"/>
<path d="M91.25 8.8125C83.8125 29.1875 77.1562 51.0312 71.2812 74.3438L46.3438 78.8438C47.9062 69.9688 48.875 59.1562 49.25 46.4062C49.4375 35.5312 49.625 24.6562 49.8125 13.7812L68.5625 9.5625L60.5 69.375H60.5938L74.2812 11.9062L91.25 8.8125Z" fill="#FFC300"/>
<path d="M101.938 25.7812C101.438 27.5938 101 29.375 100.625 31.125L99.5938 36.2812L114.594 33.0938L113.75 46.0312C106.625 47.2812 101.031 48.375 96.9688 49.3125C96.7188 50.5625 96.5 51.8125 96.3125 53.0625L95.6562 56.7188L113.094 54.1875L111.875 71.625C102.875 72.375 91.4688 74.5312 77.6562 78.0938L88.8125 10.875L120.031 6.375L118.812 23.7188C112.688 24.2812 107.062 24.9688 101.938 25.7812Z" fill="#FFC300"/>
<path d="M123.781 11.7188C133.594 8.78125 141.625 7.3125 147.875 7.3125C156.312 7.3125 160.5 10.25 160.438 16.125C160.375 24.5625 155.062 33.0312 144.5 41.5312C145.375 43.9062 149 51.375 155.375 63.9375C152.125 66.9375 147.219 71.3438 140.656 77.1562L130.625 51.2812H130.531C129.031 59.4688 127.906 67.0312 127.156 73.9688L112.344 78.0938C112.469 76.7188 113.156 72.5625 114.406 65.625L123.781 11.7188ZM135.594 26.5312C135.031 28.6562 134.531 30.7812 134.094 32.9062L132.781 39.2812C134.969 38.1562 137.125 36.6875 139.25 34.875C141.688 32.75 143.312 30.7188 144.125 28.7812C144.438 28.2188 144.594 27.6875 144.594 27.1875C144.594 25.8125 143.688 25.125 141.875 25.125C140.438 25.125 138.344 25.5938 135.594 26.5312Z" fill="#FFC300"/>
<path d="M186.688 10.4062L201.781 13.0312C188.281 36.7188 177.594 58.1562 169.719 77.3438L155.281 76.4062L165.219 55.5L157.344 17.8125L175.625 9.375C175.438 12.25 175.312 15.8438 175.25 20.1562C175.188 24.4688 175.406 28.7812 175.906 33.0938L186.688 10.4062Z" fill="#FFC300"/>
<path d="M197.844 11.7188C205.031 9.34375 211.125 8.15625 216.125 8.15625C221.75 8.15625 226.031 9.625 228.969 12.5625C233.031 16.75 235.062 21.8438 235.062 27.8438C235.062 30.0312 234.781 32.3438 234.219 34.7812C231.781 45.7812 226.031 55.4062 216.969 63.6562C207.906 71.8438 197.812 76.6562 186.688 78.0938C186.812 76.7188 187.469 72.625 188.656 65.8125L196.156 22.6875C197.219 16.25 197.781 12.5938 197.844 11.7188ZM211.25 27.1875C208.375 39.4375 206.188 51.0312 204.688 61.9688C208.438 58.4062 211.781 54.2812 214.719 49.5938C218.344 43.8438 220.156 38.9062 220.156 34.7812C220.156 29.4688 217.188 26.9375 211.25 27.1875Z" fill="#FFC300"/>
<path d="M220.156 79.2188C229.344 55.7812 236.781 33.1875 242.469 11.4375L270.969 6.65625C267.719 25.5938 266.25 48 266.562 73.875L246.688 78.4688L248.094 66.75L241.812 67.9688L239.844 76.2188L220.156 79.2188ZM249.594 54.1875L253.906 18.75H253.812L245 55.0312L249.594 54.1875Z" fill="#FFC300"/>
<path d="M301.344 10.4062L316.438 13.0312C302.938 36.7188 292.25 58.1562 284.375 77.3438L269.938 76.4062L279.875 55.5L272 17.8125L290.281 9.375C290.094 12.25 289.969 15.8438 289.906 20.1562C289.844 24.4688 290.062 28.7812 290.562 33.0938L301.344 10.4062Z" fill="#FFC300"/>
<path d="M340.688 11.8125L358.031 8.8125C354.906 20.75 352.375 31.625 350.438 41.4375L358.219 39.8438L363 11.8125L380.344 8.8125C373.719 34.375 369.531 56.0938 367.781 73.9688L351.656 78.0938L355.969 52.5938C354.219 52.9688 351.562 53.5312 348 54.2812C346.812 61.9688 345.969 68.5312 345.469 73.9688L329.344 78.0938L340.688 11.8125Z" fill="#FFC300"/>
<path d="M394.312 25.7812C393.812 27.5938 393.375 29.375 393 31.125L391.969 36.2812L406.969 33.0938L406.125 46.0312C399 47.2812 393.406 48.375 389.344 49.3125C389.094 50.5625 388.875 51.8125 388.688 53.0625L388.031 56.7188L405.469 54.1875L404.25 71.625C395.25 72.375 383.844 74.5312 370.031 78.0938L381.188 10.875L412.406 6.375L411.188 23.7188C405.062 24.2812 399.438 24.9688 394.312 25.7812Z" fill="#FFC300"/>
<path d="M416.156 11.7188C425.969 8.78125 434 7.3125 440.25 7.3125C448.688 7.3125 452.875 10.25 452.812 16.125C452.75 24.5625 447.438 33.0312 436.875 41.5312C437.75 43.9062 441.375 51.375 447.75 63.9375C444.5 66.9375 439.594 71.3438 433.031 77.1562L423 51.2812H422.906C421.406 59.4688 420.281 67.0312 419.531 73.9688L404.719 78.0938C404.844 76.7188 405.531 72.5625 406.781 65.625L416.156 11.7188ZM427.969 26.5312C427.406 28.6562 426.906 30.7812 426.469 32.9062L425.156 39.2812C427.344 38.1562 429.5 36.6875 431.625 34.875C434.062 32.75 435.688 30.7188 436.5 28.7812C436.812 28.2188 436.969 27.6875 436.969 27.1875C436.969 25.8125 436.062 25.125 434.25 25.125C432.812 25.125 430.719 25.5938 427.969 26.5312Z" fill="#FFC300"/>
<path d="M480.562 4.6875C487.188 4.6875 491.875 8.375 494.625 15.75C496.062 19.5625 496.781 23.75 496.781 28.3125C496.781 32.6875 496.125 37.4375 494.812 42.5625C492.5 51.3125 488.5 59.375 482.812 66.75C475.875 75.75 468.531 80.25 460.781 80.25C454.094 80.25 449.344 76.5625 446.531 69.1875C445.156 65.5625 444.469 61.5 444.469 57C444.469 52.5625 445.156 47.75 446.531 42.5625C448.844 33.75 452.812 25.6562 458.438 18.2812C465.375 9.21875 472.75 4.6875 480.562 4.6875ZM477.188 27.9375C473.75 27.9375 470.25 30.75 466.688 36.375C463.812 40.8125 461.812 45.1562 460.688 49.4062C460.125 51.6562 459.844 53.6875 459.844 55.5C459.844 58.0625 460.469 60.1562 461.719 61.7812C463.156 63.5938 465.156 64.5 467.719 64.5C471.219 64.5 474.375 62.6562 477.188 58.9688C479.438 56.0312 481.062 52.5625 482.062 48.5625C483.25 43.875 483.5 39.25 482.812 34.6875C482.062 30.1875 480.188 27.9375 477.188 27.9375Z" fill="#FFC300"/>
<path d="M513.562 25.7812C513.062 27.5938 512.625 29.375 512.25 31.125L511.219 36.2812L526.219 33.0938L525.375 46.0312C518.25 47.2812 512.656 48.375 508.594 49.3125C508.344 50.5625 508.125 51.8125 507.938 53.0625L507.281 56.7188L524.719 54.1875L523.5 71.625C514.5 72.375 503.094 74.5312 489.281 78.0938L500.438 10.875L531.656 6.375L530.438 23.7188C524.312 24.2812 518.688 24.9688 513.562 25.7812Z" fill="#FFC300"/>
<path d="M569.344 28.4062C567.344 29.1562 564.969 30.0625 562.219 31.125L555.188 33.8438C555.188 30.9062 554.375 29.4375 552.75 29.4375C550.438 29.4375 548.125 30.75 545.812 33.375C544.188 35.3125 543.5 37.1875 543.75 39C543.938 40.1875 545.125 40.7812 547.312 40.7812C548.5 40.7812 550.062 40.5938 552 40.2188C554.688 39.6562 557.062 39.375 559.125 39.375C564.375 39.375 567.438 41.1875 568.312 44.8125C568.562 45.9375 568.688 47.125 568.688 48.375C568.688 52.375 567.188 56.6875 564.188 61.3125C560.312 67.375 554.875 72.4688 547.875 76.5938C544.188 78.7812 540.562 79.875 537 79.875C533.75 79.875 530.562 78.9688 527.438 77.1562C529 73.4062 531.5 67.875 534.938 60.5625C536.938 61.9375 539.062 62.625 541.312 62.625C542.312 62.625 543.344 62.4688 544.406 62.1562C546.344 61.6562 548.188 60.9375 549.938 60C552.438 58.625 553.688 57.2188 553.688 55.7812C553.688 54.2188 552.406 53.4375 549.844 53.4375C548.094 53.4375 545.531 53.8125 542.156 54.5625C538.844 55.25 536.312 55.5938 534.562 55.5938C532.25 55.5938 530.469 55.1562 529.219 54.2812C526.781 52.6562 525.781 50.125 526.219 46.6875C527.031 39.75 531.5 31.7188 539.625 22.5938C547.938 13.2188 555.094 8.3125 561.094 7.875C566.906 7.5 569.812 11.875 569.812 21C569.812 23.1875 569.656 25.6562 569.344 28.4062Z" fill="#FFC300"/>
<path d="M131.781 96.8125L149.125 93.8125C146 105.75 143.469 116.625 141.531 126.438L149.312 124.844L154.094 96.8125L171.438 93.8125C164.812 119.375 160.625 141.094 158.875 158.969L142.75 163.094L147.062 137.594C145.312 137.969 142.656 138.531 139.094 139.281C137.906 146.969 137.062 153.531 136.562 158.969L120.438 163.094L131.781 96.8125Z" fill="#FFC300"/>
<path d="M154.375 164.219C163.562 140.781 171 118.188 176.688 96.4375L205.188 91.6562C201.938 110.594 200.469 133 200.781 158.875L180.906 163.469L182.312 151.75L176.031 152.969L174.062 161.219L154.375 164.219ZM183.812 139.188L188.125 103.75H188.031L179.219 140.031L183.812 139.188Z" fill="#FFC300"/>
<path d="M234.25 92.2188C240.75 92.2188 245.531 95.75 248.594 102.812L238 114.438C236.562 112.938 234.906 112.188 233.031 112.188C229.719 112.188 226.281 115.031 222.719 120.719C219.781 125.406 217.875 129.781 217 133.844C216.562 135.781 216.344 137.531 216.344 139.094C216.344 143.281 217.875 146.156 220.938 147.719C221.938 148.219 223 148.469 224.125 148.469C227.375 148.469 230.781 146.062 234.344 141.25L237.344 152.406C231.156 159.281 224.875 162.719 218.5 162.719C212 162.719 207.25 159.281 204.25 152.406C202.438 148.406 201.531 143.938 201.531 139C201.531 135.375 202 131.531 202.938 127.469C204.812 119.156 208.375 111.562 213.625 104.688C219.938 96.375 226.812 92.2188 234.25 92.2188Z" fill="#FFC300"/>
<path d="M249.156 96.8125L265.281 93.8125C263.844 99.3125 262.781 103.656 262.094 106.844C267.531 102.094 272.5 97.5312 277 93.1562L288.812 100.844L270.344 117.25L280.75 155.406L263.781 164.406L257.219 129.062C255.281 139.125 253.75 149.094 252.625 158.969L237.719 163.094L249.156 96.8125Z" fill="#FFC300"/>
<path d="M271.75 164.219C280.938 140.781 288.375 118.188 294.062 96.4375L322.562 91.6562C319.312 110.594 317.844 133 318.156 158.875L298.281 163.469L299.688 151.75L293.406 152.969L291.438 161.219L271.75 164.219ZM301.188 139.188L305.5 103.75H305.406L296.594 140.031L301.188 139.188Z" fill="#FFC300"/>
<path d="M363.344 92.875L362.781 110.312C358.406 110.562 354.25 110.875 350.312 111.25C346.188 128.562 343.406 144.469 341.969 158.969L326.125 163.094L334.75 113.219C333.062 113.469 331.375 113.75 329.688 114.062L324.719 115L323.594 97.4688L363.344 92.875Z" fill="#FFC300"/>
<path d="M363.062 96.8125L380.406 93.8125C377.281 105.75 374.75 116.625 372.812 126.438L380.594 124.844L385.375 96.8125L402.719 93.8125C396.094 119.375 391.906 141.094 390.156 158.969L374.031 163.094L378.344 137.594C376.594 137.969 373.938 138.531 370.375 139.281C369.188 146.969 368.344 153.531 367.844 158.969L351.719 163.094L363.062 96.8125Z" fill="#FFC300"/>
<path d="M430.094 89.6875C436.719 89.6875 441.406 93.375 444.156 100.75C445.594 104.562 446.312 108.75 446.312 113.312C446.312 117.688 445.656 122.438 444.344 127.562C442.031 136.312 438.031 144.375 432.344 151.75C425.406 160.75 418.062 165.25 410.312 165.25C403.625 165.25 398.875 161.562 396.062 154.188C394.688 150.562 394 146.5 394 142C394 137.562 394.688 132.75 396.062 127.562C398.375 118.75 402.344 110.656 407.969 103.281C414.906 94.2188 422.281 89.6875 430.094 89.6875ZM426.719 112.938C423.281 112.938 419.781 115.75 416.219 121.375C413.344 125.812 411.344 130.156 410.219 134.406C409.656 136.656 409.375 138.688 409.375 140.5C409.375 143.062 410 145.156 411.25 146.781C412.688 148.594 414.688 149.5 417.25 149.5C420.75 149.5 423.906 147.656 426.719 143.969C428.969 141.031 430.594 137.562 431.594 133.562C432.781 128.875 433.031 124.25 432.344 119.688C431.594 115.188 429.719 112.938 426.719 112.938Z" fill="#FFC300"/>
<path d="M451.844 97.0938L468.062 93.8125C467.938 95.75 467.875 98.5 467.875 102.062C467.875 110.562 468.156 118.031 468.719 124.469C469.031 128.156 469.5 131.125 470.125 133.375L476.5 96.8125L492.625 93.8125C486.125 118.875 481.875 140.594 479.875 158.969L465.062 163.094C465 162.969 464.594 161.875 463.844 159.812L458.969 145.938C458.156 143.688 457.688 142.25 457.562 141.625C456.25 149 455.219 156.156 454.469 163.094L439.469 167.594L451.844 97.0938Z" fill="#FFC300"/>
<path d="M30.0312 25.7812C29.5312 27.5938 29.0938 29.375 28.7188 31.125L27.6875 36.2812L42.6875 33.0938L41.8438 46.0312C34.7188 47.2812 29.125 48.375 25.0625 49.3125C24.8125 50.5625 24.5938 51.8125 24.4062 53.0625L23.75 56.7188L41.1875 54.1875L39.9688 71.625C30.9688 72.375 19.5625 74.5312 5.75 78.0938L16.9062 10.875L48.125 6.375L46.9062 23.7188C40.7812 24.2812 35.1562 24.9688 30.0312 25.7812Z" stroke="black" stroke-width="8" mask="url(#path-1-outside-1)"/>
<path d="M91.25 8.8125C83.8125 29.1875 77.1562 51.0312 71.2812 74.3438L46.3438 78.8438C47.9062 69.9688 48.875 59.1562 49.25 46.4062C49.4375 35.5312 49.625 24.6562 49.8125 13.7812L68.5625 9.5625L60.5 69.375H60.5938L74.2812 11.9062L91.25 8.8125Z" stroke="black" stroke-width="8" mask="url(#path-1-outside-1)"/>
<path d="M101.938 25.7812C101.438 27.5938 101 29.375 100.625 31.125L99.5938 36.2812L114.594 33.0938L113.75 46.0312C106.625 47.2812 101.031 48.375 96.9688 49.3125C96.7188 50.5625 96.5 51.8125 96.3125 53.0625L95.6562 56.7188L113.094 54.1875L111.875 71.625C102.875 72.375 91.4688 74.5312 77.6562 78.0938L88.8125 10.875L120.031 6.375L118.812 23.7188C112.688 24.2812 107.062 24.9688 101.938 25.7812Z" stroke="black" stroke-width="8" mask="url(#path-1-outside-1)"/>
<path d="M123.781 11.7188C133.594 8.78125 141.625 7.3125 147.875 7.3125C156.312 7.3125 160.5 10.25 160.438 16.125C160.375 24.5625 155.062 33.0312 144.5 41.5312C145.375 43.9062 149 51.375 155.375 63.9375C152.125 66.9375 147.219 71.3438 140.656 77.1562L130.625 51.2812H130.531C129.031 59.4688 127.906 67.0312 127.156 73.9688L112.344 78.0938C112.469 76.7188 113.156 72.5625 114.406 65.625L123.781 11.7188ZM135.594 26.5312C135.031 28.6562 134.531 30.7812 134.094 32.9062L132.781 39.2812C134.969 38.1562 137.125 36.6875 139.25 34.875C141.688 32.75 143.312 30.7188 144.125 28.7812C144.438 28.2188 144.594 27.6875 144.594 27.1875C144.594 25.8125 143.688 25.125 141.875 25.125C140.438 25.125 138.344 25.5938 135.594 26.5312Z" stroke="black" stroke-width="8" mask="url(#path-1-outside-1)"/>
<path d="M186.688 10.4062L201.781 13.0312C188.281 36.7188 177.594 58.1562 169.719 77.3438L155.281 76.4062L165.219 55.5L157.344 17.8125L175.625 9.375C175.438 12.25 175.312 15.8438 175.25 20.1562C175.188 24.4688 175.406 28.7812 175.906 33.0938L186.688 10.4062Z" stroke="black" stroke-width="8" mask="url(#path-1-outside-1)"/>
<path d="M197.844 11.7188C205.031 9.34375 211.125 8.15625 216.125 8.15625C221.75 8.15625 226.031 9.625 228.969 12.5625C233.031 16.75 235.062 21.8438 235.062 27.8438C235.062 30.0312 234.781 32.3438 234.219 34.7812C231.781 45.7812 226.031 55.4062 216.969 63.6562C207.906 71.8438 197.812 76.6562 186.688 78.0938C186.812 76.7188 187.469 72.625 188.656 65.8125L196.156 22.6875C197.219 16.25 197.781 12.5938 197.844 11.7188ZM211.25 27.1875C208.375 39.4375 206.188 51.0312 204.688 61.9688C208.438 58.4062 211.781 54.2812 214.719 49.5938C218.344 43.8438 220.156 38.9062 220.156 34.7812C220.156 29.4688 217.188 26.9375 211.25 27.1875Z" stroke="black" stroke-width="8" mask="url(#path-1-outside-1)"/>
<path d="M220.156 79.2188C229.344 55.7812 236.781 33.1875 242.469 11.4375L270.969 6.65625C267.719 25.5938 266.25 48 266.562 73.875L246.688 78.4688L248.094 66.75L241.812 67.9688L239.844 76.2188L220.156 79.2188ZM249.594 54.1875L253.906 18.75H253.812L245 55.0312L249.594 54.1875Z" stroke="black" stroke-width="8" mask="url(#path-1-outside-1)"/>
<path d="M301.344 10.4062L316.438 13.0312C302.938 36.7188 292.25 58.1562 284.375 77.3438L269.938 76.4062L279.875 55.5L272 17.8125L290.281 9.375C290.094 12.25 289.969 15.8438 289.906 20.1562C289.844 24.4688 290.062 28.7812 290.562 33.0938L301.344 10.4062Z" stroke="black" stroke-width="8" mask="url(#path-1-outside-1)"/>
<path d="M340.688 11.8125L358.031 8.8125C354.906 20.75 352.375 31.625 350.438 41.4375L358.219 39.8438L363 11.8125L380.344 8.8125C373.719 34.375 369.531 56.0938 367.781 73.9688L351.656 78.0938L355.969 52.5938C354.219 52.9688 351.562 53.5312 348 54.2812C346.812 61.9688 345.969 68.5312 345.469 73.9688L329.344 78.0938L340.688 11.8125Z" stroke="black" stroke-width="8" mask="url(#path-1-outside-1)"/>
<path d="M394.312 25.7812C393.812 27.5938 393.375 29.375 393 31.125L391.969 36.2812L406.969 33.0938L406.125 46.0312C399 47.2812 393.406 48.375 389.344 49.3125C389.094 50.5625 388.875 51.8125 388.688 53.0625L388.031 56.7188L405.469 54.1875L404.25 71.625C395.25 72.375 383.844 74.5312 370.031 78.0938L381.188 10.875L412.406 6.375L411.188 23.7188C405.062 24.2812 399.438 24.9688 394.312 25.7812Z" stroke="black" stroke-width="8" mask="url(#path-1-outside-1)"/>
<path d="M416.156 11.7188C425.969 8.78125 434 7.3125 440.25 7.3125C448.688 7.3125 452.875 10.25 452.812 16.125C452.75 24.5625 447.438 33.0312 436.875 41.5312C437.75 43.9062 441.375 51.375 447.75 63.9375C444.5 66.9375 439.594 71.3438 433.031 77.1562L423 51.2812H422.906C421.406 59.4688 420.281 67.0312 419.531 73.9688L404.719 78.0938C404.844 76.7188 405.531 72.5625 406.781 65.625L416.156 11.7188ZM427.969 26.5312C427.406 28.6562 426.906 30.7812 426.469 32.9062L425.156 39.2812C427.344 38.1562 429.5 36.6875 431.625 34.875C434.062 32.75 435.688 30.7188 436.5 28.7812C436.812 28.2188 436.969 27.6875 436.969 27.1875C436.969 25.8125 436.062 25.125 434.25 25.125C432.812 25.125 430.719 25.5938 427.969 26.5312Z" stroke="black" stroke-width="8" mask="url(#path-1-outside-1)"/>
<path d="M480.562 4.6875C487.188 4.6875 491.875 8.375 494.625 15.75C496.062 19.5625 496.781 23.75 496.781 28.3125C496.781 32.6875 496.125 37.4375 494.812 42.5625C492.5 51.3125 488.5 59.375 482.812 66.75C475.875 75.75 468.531 80.25 460.781 80.25C454.094 80.25 449.344 76.5625 446.531 69.1875C445.156 65.5625 444.469 61.5 444.469 57C444.469 52.5625 445.156 47.75 446.531 42.5625C448.844 33.75 452.812 25.6562 458.438 18.2812C465.375 9.21875 472.75 4.6875 480.562 4.6875ZM477.188 27.9375C473.75 27.9375 470.25 30.75 466.688 36.375C463.812 40.8125 461.812 45.1562 460.688 49.4062C460.125 51.6562 459.844 53.6875 459.844 55.5C459.844 58.0625 460.469 60.1562 461.719 61.7812C463.156 63.5938 465.156 64.5 467.719 64.5C471.219 64.5 474.375 62.6562 477.188 58.9688C479.438 56.0312 481.062 52.5625 482.062 48.5625C483.25 43.875 483.5 39.25 482.812 34.6875C482.062 30.1875 480.188 27.9375 477.188 27.9375Z" stroke="black" stroke-width="8" mask="url(#path-1-outside-1)"/>
<path d="M513.562 25.7812C513.062 27.5938 512.625 29.375 512.25 31.125L511.219 36.2812L526.219 33.0938L525.375 46.0312C518.25 47.2812 512.656 48.375 508.594 49.3125C508.344 50.5625 508.125 51.8125 507.938 53.0625L507.281 56.7188L524.719 54.1875L523.5 71.625C514.5 72.375 503.094 74.5312 489.281 78.0938L500.438 10.875L531.656 6.375L530.438 23.7188C524.312 24.2812 518.688 24.9688 513.562 25.7812Z" stroke="black" stroke-width="8" mask="url(#path-1-outside-1)"/>
<path d="M569.344 28.4062C567.344 29.1562 564.969 30.0625 562.219 31.125L555.188 33.8438C555.188 30.9062 554.375 29.4375 552.75 29.4375C550.438 29.4375 548.125 30.75 545.812 33.375C544.188 35.3125 543.5 37.1875 543.75 39C543.938 40.1875 545.125 40.7812 547.312 40.7812C548.5 40.7812 550.062 40.5938 552 40.2188C554.688 39.6562 557.062 39.375 559.125 39.375C564.375 39.375 567.438 41.1875 568.312 44.8125C568.562 45.9375 568.688 47.125 568.688 48.375C568.688 52.375 567.188 56.6875 564.188 61.3125C560.312 67.375 554.875 72.4688 547.875 76.5938C544.188 78.7812 540.562 79.875 537 79.875C533.75 79.875 530.562 78.9688 527.438 77.1562C529 73.4062 531.5 67.875 534.938 60.5625C536.938 61.9375 539.062 62.625 541.312 62.625C542.312 62.625 543.344 62.4688 544.406 62.1562C546.344 61.6562 548.188 60.9375 549.938 60C552.438 58.625 553.688 57.2188 553.688 55.7812C553.688 54.2188 552.406 53.4375 549.844 53.4375C548.094 53.4375 545.531 53.8125 542.156 54.5625C538.844 55.25 536.312 55.5938 534.562 55.5938C532.25 55.5938 530.469 55.1562 529.219 54.2812C526.781 52.6562 525.781 50.125 526.219 46.6875C527.031 39.75 531.5 31.7188 539.625 22.5938C547.938 13.2188 555.094 8.3125 561.094 7.875C566.906 7.5 569.812 11.875 569.812 21C569.812 23.1875 569.656 25.6562 569.344 28.4062Z" stroke="black" stroke-width="8" mask="url(#path-1-outside-1)"/>
<path d="M131.781 96.8125L149.125 93.8125C146 105.75 143.469 116.625 141.531 126.438L149.312 124.844L154.094 96.8125L171.438 93.8125C164.812 119.375 160.625 141.094 158.875 158.969L142.75 163.094L147.062 137.594C145.312 137.969 142.656 138.531 139.094 139.281C137.906 146.969 137.062 153.531 136.562 158.969L120.438 163.094L131.781 96.8125Z" stroke="black" stroke-width="8" mask="url(#path-1-outside-1)"/>
<path d="M154.375 164.219C163.562 140.781 171 118.188 176.688 96.4375L205.188 91.6562C201.938 110.594 200.469 133 200.781 158.875L180.906 163.469L182.312 151.75L176.031 152.969L174.062 161.219L154.375 164.219ZM183.812 139.188L188.125 103.75H188.031L179.219 140.031L183.812 139.188Z" stroke="black" stroke-width="8" mask="url(#path-1-outside-1)"/>
<path d="M234.25 92.2188C240.75 92.2188 245.531 95.75 248.594 102.812L238 114.438C236.562 112.938 234.906 112.188 233.031 112.188C229.719 112.188 226.281 115.031 222.719 120.719C219.781 125.406 217.875 129.781 217 133.844C216.562 135.781 216.344 137.531 216.344 139.094C216.344 143.281 217.875 146.156 220.938 147.719C221.938 148.219 223 148.469 224.125 148.469C227.375 148.469 230.781 146.062 234.344 141.25L237.344 152.406C231.156 159.281 224.875 162.719 218.5 162.719C212 162.719 207.25 159.281 204.25 152.406C202.438 148.406 201.531 143.938 201.531 139C201.531 135.375 202 131.531 202.938 127.469C204.812 119.156 208.375 111.562 213.625 104.688C219.938 96.375 226.812 92.2188 234.25 92.2188Z" stroke="black" stroke-width="8" mask="url(#path-1-outside-1)"/>
<path d="M249.156 96.8125L265.281 93.8125C263.844 99.3125 262.781 103.656 262.094 106.844C267.531 102.094 272.5 97.5312 277 93.1562L288.812 100.844L270.344 117.25L280.75 155.406L263.781 164.406L257.219 129.062C255.281 139.125 253.75 149.094 252.625 158.969L237.719 163.094L249.156 96.8125Z" stroke="black" stroke-width="8" mask="url(#path-1-outside-1)"/>
<path d="M271.75 164.219C280.938 140.781 288.375 118.188 294.062 96.4375L322.562 91.6562C319.312 110.594 317.844 133 318.156 158.875L298.281 163.469L299.688 151.75L293.406 152.969L291.438 161.219L271.75 164.219ZM301.188 139.188L305.5 103.75H305.406L296.594 140.031L301.188 139.188Z" stroke="black" stroke-width="8" mask="url(#path-1-outside-1)"/>
<path d="M363.344 92.875L362.781 110.312C358.406 110.562 354.25 110.875 350.312 111.25C346.188 128.562 343.406 144.469 341.969 158.969L326.125 163.094L334.75 113.219C333.062 113.469 331.375 113.75 329.688 114.062L324.719 115L323.594 97.4688L363.344 92.875Z" stroke="black" stroke-width="8" mask="url(#path-1-outside-1)"/>
<path d="M363.062 96.8125L380.406 93.8125C377.281 105.75 374.75 116.625 372.812 126.438L380.594 124.844L385.375 96.8125L402.719 93.8125C396.094 119.375 391.906 141.094 390.156 158.969L374.031 163.094L378.344 137.594C376.594 137.969 373.938 138.531 370.375 139.281C369.188 146.969 368.344 153.531 367.844 158.969L351.719 163.094L363.062 96.8125Z" stroke="black" stroke-width="8" mask="url(#path-1-outside-1)"/>
<path d="M430.094 89.6875C436.719 89.6875 441.406 93.375 444.156 100.75C445.594 104.562 446.312 108.75 446.312 113.312C446.312 117.688 445.656 122.438 444.344 127.562C442.031 136.312 438.031 144.375 432.344 151.75C425.406 160.75 418.062 165.25 410.312 165.25C403.625 165.25 398.875 161.562 396.062 154.188C394.688 150.562 394 146.5 394 142C394 137.562 394.688 132.75 396.062 127.562C398.375 118.75 402.344 110.656 407.969 103.281C414.906 94.2188 422.281 89.6875 430.094 89.6875ZM426.719 112.938C423.281 112.938 419.781 115.75 416.219 121.375C413.344 125.812 411.344 130.156 410.219 134.406C409.656 136.656 409.375 138.688 409.375 140.5C409.375 143.062 410 145.156 411.25 146.781C412.688 148.594 414.688 149.5 417.25 149.5C420.75 149.5 423.906 147.656 426.719 143.969C428.969 141.031 430.594 137.562 431.594 133.562C432.781 128.875 433.031 124.25 432.344 119.688C431.594 115.188 429.719 112.938 426.719 112.938Z" stroke="black" stroke-width="8" mask="url(#path-1-outside-1)"/>
<path d="M451.844 97.0938L468.062 93.8125C467.938 95.75 467.875 98.5 467.875 102.062C467.875 110.562 468.156 118.031 468.719 124.469C469.031 128.156 469.5 131.125 470.125 133.375L476.5 96.8125L492.625 93.8125C486.125 118.875 481.875 140.594 479.875 158.969L465.062 163.094C465 162.969 464.594 161.875 463.844 159.812L458.969 145.938C458.156 143.688 457.688 142.25 457.562 141.625C456.25 149 455.219 156.156 454.469 163.094L439.469 167.594L451.844 97.0938Z" stroke="black" stroke-width="8" mask="url(#path-1-outside-1)"/>
</svg>
