<svg width="972" height="89" viewBox="0 0 972 89" fill="none" xmlns="http://www.w3.org/2000/svg">
<mask id="path-1-outside-1" maskUnits="userSpaceOnUse" x="0.75" y="0.6875" width="971" height="88" fill="black">
<rect fill="white" x="0.75" y="0.6875" width="971" height="88"/>
<path d="M30.0312 25.7812C29.5312 27.5938 29.0938 29.375 28.7188 31.125L27.6875 36.2812L42.6875 33.0938L41.8438 46.0312C34.7188 47.2812 29.125 48.375 25.0625 49.3125C24.8125 50.5625 24.5938 51.8125 24.4062 53.0625L23.75 56.7188L41.1875 54.1875L39.9688 71.625C30.9688 72.375 19.5625 74.5312 5.75 78.0938L16.9062 10.875L48.125 6.375L46.9062 23.7188C40.7812 24.2812 35.1562 24.9688 30.0312 25.7812Z"/>
<path d="M91.25 8.8125C83.8125 29.1875 77.1562 51.0312 71.2812 74.3438L46.3438 78.8438C47.9062 69.9688 48.875 59.1562 49.25 46.4062C49.4375 35.5312 49.625 24.6562 49.8125 13.7812L68.5625 9.5625L60.5 69.375H60.5938L74.2812 11.9062L91.25 8.8125Z"/>
<path d="M101.938 25.7812C101.438 27.5938 101 29.375 100.625 31.125L99.5938 36.2812L114.594 33.0938L113.75 46.0312C106.625 47.2812 101.031 48.375 96.9688 49.3125C96.7188 50.5625 96.5 51.8125 96.3125 53.0625L95.6562 56.7188L113.094 54.1875L111.875 71.625C102.875 72.375 91.4688 74.5312 77.6562 78.0938L88.8125 10.875L120.031 6.375L118.812 23.7188C112.688 24.2812 107.062 24.9688 101.938 25.7812Z"/>
<path d="M123.781 11.7188C133.594 8.78125 141.625 7.3125 147.875 7.3125C156.312 7.3125 160.5 10.25 160.438 16.125C160.375 24.5625 155.062 33.0312 144.5 41.5312C145.375 43.9062 149 51.375 155.375 63.9375C152.125 66.9375 147.219 71.3438 140.656 77.1562L130.625 51.2812H130.531C129.031 59.4688 127.906 67.0312 127.156 73.9688L112.344 78.0938C112.469 76.7188 113.156 72.5625 114.406 65.625L123.781 11.7188ZM135.594 26.5312C135.031 28.6562 134.531 30.7812 134.094 32.9062L132.781 39.2812C134.969 38.1562 137.125 36.6875 139.25 34.875C141.688 32.75 143.312 30.7188 144.125 28.7812C144.438 28.2188 144.594 27.6875 144.594 27.1875C144.594 25.8125 143.688 25.125 141.875 25.125C140.438 25.125 138.344 25.5938 135.594 26.5312Z"/>
<path d="M186.688 10.4062L201.781 13.0312C188.281 36.7188 177.594 58.1562 169.719 77.3438L155.281 76.4062L165.219 55.5L157.344 17.8125L175.625 9.375C175.438 12.25 175.312 15.8438 175.25 20.1562C175.188 24.4688 175.406 28.7812 175.906 33.0938L186.688 10.4062Z"/>
<path d="M197.844 11.7188C205.031 9.34375 211.125 8.15625 216.125 8.15625C221.75 8.15625 226.031 9.625 228.969 12.5625C233.031 16.75 235.062 21.8438 235.062 27.8438C235.062 30.0312 234.781 32.3438 234.219 34.7812C231.781 45.7812 226.031 55.4062 216.969 63.6562C207.906 71.8438 197.812 76.6562 186.688 78.0938C186.812 76.7188 187.469 72.625 188.656 65.8125L196.156 22.6875C197.219 16.25 197.781 12.5938 197.844 11.7188ZM211.25 27.1875C208.375 39.4375 206.188 51.0312 204.688 61.9688C208.438 58.4062 211.781 54.2812 214.719 49.5938C218.344 43.8438 220.156 38.9062 220.156 34.7812C220.156 29.4688 217.188 26.9375 211.25 27.1875Z"/>
<path d="M220.156 79.2188C229.344 55.7812 236.781 33.1875 242.469 11.4375L270.969 6.65625C267.719 25.5938 266.25 48 266.562 73.875L246.688 78.4688L248.094 66.75L241.812 67.9688L239.844 76.2188L220.156 79.2188ZM249.594 54.1875L253.906 18.75H253.812L245 55.0312L249.594 54.1875Z"/>
<path d="M301.344 10.4062L316.438 13.0312C302.938 36.7188 292.25 58.1562 284.375 77.3438L269.938 76.4062L279.875 55.5L272 17.8125L290.281 9.375C290.094 12.25 289.969 15.8438 289.906 20.1562C289.844 24.4688 290.062 28.7812 290.562 33.0938L301.344 10.4062Z"/>
<path d="M340.688 11.8125L358.031 8.8125C354.906 20.75 352.375 31.625 350.438 41.4375L358.219 39.8438L363 11.8125L380.344 8.8125C373.719 34.375 369.531 56.0938 367.781 73.9688L351.656 78.0938L355.969 52.5938C354.219 52.9688 351.562 53.5312 348 54.2812C346.812 61.9688 345.969 68.5312 345.469 73.9688L329.344 78.0938L340.688 11.8125Z"/>
<path d="M394.312 25.7812C393.812 27.5938 393.375 29.375 393 31.125L391.969 36.2812L406.969 33.0938L406.125 46.0312C399 47.2812 393.406 48.375 389.344 49.3125C389.094 50.5625 388.875 51.8125 388.688 53.0625L388.031 56.7188L405.469 54.1875L404.25 71.625C395.25 72.375 383.844 74.5312 370.031 78.0938L381.188 10.875L412.406 6.375L411.188 23.7188C405.062 24.2812 399.438 24.9688 394.312 25.7812Z"/>
<path d="M416.156 11.7188C425.969 8.78125 434 7.3125 440.25 7.3125C448.688 7.3125 452.875 10.25 452.812 16.125C452.75 24.5625 447.438 33.0312 436.875 41.5312C437.75 43.9062 441.375 51.375 447.75 63.9375C444.5 66.9375 439.594 71.3438 433.031 77.1562L423 51.2812H422.906C421.406 59.4688 420.281 67.0312 419.531 73.9688L404.719 78.0938C404.844 76.7188 405.531 72.5625 406.781 65.625L416.156 11.7188ZM427.969 26.5312C427.406 28.6562 426.906 30.7812 426.469 32.9062L425.156 39.2812C427.344 38.1562 429.5 36.6875 431.625 34.875C434.062 32.75 435.688 30.7188 436.5 28.7812C436.812 28.2188 436.969 27.6875 436.969 27.1875C436.969 25.8125 436.062 25.125 434.25 25.125C432.812 25.125 430.719 25.5938 427.969 26.5312Z"/>
<path d="M480.562 4.6875C487.188 4.6875 491.875 8.375 494.625 15.75C496.062 19.5625 496.781 23.75 496.781 28.3125C496.781 32.6875 496.125 37.4375 494.812 42.5625C492.5 51.3125 488.5 59.375 482.812 66.75C475.875 75.75 468.531 80.25 460.781 80.25C454.094 80.25 449.344 76.5625 446.531 69.1875C445.156 65.5625 444.469 61.5 444.469 57C444.469 52.5625 445.156 47.75 446.531 42.5625C448.844 33.75 452.812 25.6562 458.438 18.2812C465.375 9.21875 472.75 4.6875 480.562 4.6875ZM477.188 27.9375C473.75 27.9375 470.25 30.75 466.688 36.375C463.812 40.8125 461.812 45.1562 460.688 49.4062C460.125 51.6562 459.844 53.6875 459.844 55.5C459.844 58.0625 460.469 60.1562 461.719 61.7812C463.156 63.5938 465.156 64.5 467.719 64.5C471.219 64.5 474.375 62.6562 477.188 58.9688C479.438 56.0312 481.062 52.5625 482.062 48.5625C483.25 43.875 483.5 39.25 482.812 34.6875C482.062 30.1875 480.188 27.9375 477.188 27.9375Z"/>
<path d="M513.562 25.7812C513.062 27.5938 512.625 29.375 512.25 31.125L511.219 36.2812L526.219 33.0938L525.375 46.0312C518.25 47.2812 512.656 48.375 508.594 49.3125C508.344 50.5625 508.125 51.8125 507.938 53.0625L507.281 56.7188L524.719 54.1875L523.5 71.625C514.5 72.375 503.094 74.5312 489.281 78.0938L500.438 10.875L531.656 6.375L530.438 23.7188C524.312 24.2812 518.688 24.9688 513.562 25.7812Z"/>
<path d="M569.344 28.4062C567.344 29.1562 564.969 30.0625 562.219 31.125L555.188 33.8438C555.188 30.9062 554.375 29.4375 552.75 29.4375C550.438 29.4375 548.125 30.75 545.812 33.375C544.188 35.3125 543.5 37.1875 543.75 39C543.938 40.1875 545.125 40.7812 547.312 40.7812C548.5 40.7812 550.062 40.5938 552 40.2188C554.688 39.6562 557.062 39.375 559.125 39.375C564.375 39.375 567.438 41.1875 568.312 44.8125C568.562 45.9375 568.688 47.125 568.688 48.375C568.688 52.375 567.188 56.6875 564.188 61.3125C560.312 67.375 554.875 72.4688 547.875 76.5938C544.188 78.7812 540.562 79.875 537 79.875C533.75 79.875 530.562 78.9688 527.438 77.1562C529 73.4062 531.5 67.875 534.938 60.5625C536.938 61.9375 539.062 62.625 541.312 62.625C542.312 62.625 543.344 62.4688 544.406 62.1562C546.344 61.6562 548.188 60.9375 549.938 60C552.438 58.625 553.688 57.2188 553.688 55.7812C553.688 54.2188 552.406 53.4375 549.844 53.4375C548.094 53.4375 545.531 53.8125 542.156 54.5625C538.844 55.25 536.312 55.5938 534.562 55.5938C532.25 55.5938 530.469 55.1562 529.219 54.2812C526.781 52.6562 525.781 50.125 526.219 46.6875C527.031 39.75 531.5 31.7188 539.625 22.5938C547.938 13.2188 555.094 8.3125 561.094 7.875C566.906 7.5 569.812 11.875 569.812 21C569.812 23.1875 569.656 25.6562 569.344 28.4062Z"/>
<path d="M604.781 11.8125L622.125 8.8125C619 20.75 616.469 31.625 614.531 41.4375L622.312 39.8438L627.094 11.8125L644.438 8.8125C637.812 34.375 633.625 56.0938 631.875 73.9688L615.75 78.0938L620.062 52.5938C618.312 52.9688 615.656 53.5312 612.094 54.2812C610.906 61.9688 610.062 68.5312 609.562 73.9688L593.438 78.0938L604.781 11.8125Z"/>
<path d="M627.375 79.2188C636.562 55.7812 644 33.1875 649.688 11.4375L678.188 6.65625C674.938 25.5938 673.469 48 673.781 73.875L653.906 78.4688L655.312 66.75L649.031 67.9688L647.062 76.2188L627.375 79.2188ZM656.812 54.1875L661.125 18.75H661.031L652.219 55.0312L656.812 54.1875Z"/>
<path d="M707.25 7.21875C713.75 7.21875 718.531 10.75 721.594 17.8125L711 29.4375C709.562 27.9375 707.906 27.1875 706.031 27.1875C702.719 27.1875 699.281 30.0312 695.719 35.7188C692.781 40.4062 690.875 44.7812 690 48.8438C689.562 50.7812 689.344 52.5312 689.344 54.0938C689.344 58.2812 690.875 61.1562 693.938 62.7188C694.938 63.2188 696 63.4688 697.125 63.4688C700.375 63.4688 703.781 61.0625 707.344 56.25L710.344 67.4062C704.156 74.2812 697.875 77.7188 691.5 77.7188C685 77.7188 680.25 74.2812 677.25 67.4062C675.438 63.4062 674.531 58.9375 674.531 54C674.531 50.375 675 46.5312 675.938 42.4688C677.812 34.1562 681.375 26.5625 686.625 19.6875C692.938 11.375 699.812 7.21875 707.25 7.21875Z"/>
<path d="M722.156 11.8125L738.281 8.8125C736.844 14.3125 735.781 18.6562 735.094 21.8438C740.531 17.0938 745.5 12.5312 750 8.15625L761.812 15.8438L743.344 32.25L753.75 70.4062L736.781 79.4062L730.219 44.0625C728.281 54.125 726.75 64.0938 725.625 73.9688L710.719 78.0938L722.156 11.8125Z"/>
<path d="M744.75 79.2188C753.938 55.7812 761.375 33.1875 767.062 11.4375L795.562 6.65625C792.312 25.5938 790.844 48 791.156 73.875L771.281 78.4688L772.688 66.75L766.406 67.9688L764.438 76.2188L744.75 79.2188ZM774.188 54.1875L778.5 18.75H778.406L769.594 55.0312L774.188 54.1875Z"/>
<path d="M836.344 7.875L835.781 25.3125C831.406 25.5625 827.25 25.875 823.312 26.25C819.188 43.5625 816.406 59.4688 814.969 73.9688L799.125 78.0938L807.75 28.2188C806.062 28.4688 804.375 28.75 802.688 29.0625L797.719 30L796.594 12.4688L836.344 7.875Z"/>
<path d="M836.062 11.8125L853.406 8.8125C850.281 20.75 847.75 31.625 845.812 41.4375L853.594 39.8438L858.375 11.8125L875.719 8.8125C869.094 34.375 864.906 56.0938 863.156 73.9688L847.031 78.0938L851.344 52.5938C849.594 52.9688 846.938 53.5312 843.375 54.2812C842.188 61.9688 841.344 68.5312 840.844 73.9688L824.719 78.0938L836.062 11.8125Z"/>
<path d="M903.094 4.6875C909.719 4.6875 914.406 8.375 917.156 15.75C918.594 19.5625 919.312 23.75 919.312 28.3125C919.312 32.6875 918.656 37.4375 917.344 42.5625C915.031 51.3125 911.031 59.375 905.344 66.75C898.406 75.75 891.062 80.25 883.312 80.25C876.625 80.25 871.875 76.5625 869.062 69.1875C867.688 65.5625 867 61.5 867 57C867 52.5625 867.688 47.75 869.062 42.5625C871.375 33.75 875.344 25.6562 880.969 18.2812C887.906 9.21875 895.281 4.6875 903.094 4.6875ZM899.719 27.9375C896.281 27.9375 892.781 30.75 889.219 36.375C886.344 40.8125 884.344 45.1562 883.219 49.4062C882.656 51.6562 882.375 53.6875 882.375 55.5C882.375 58.0625 883 60.1562 884.25 61.7812C885.688 63.5938 887.688 64.5 890.25 64.5C893.75 64.5 896.906 62.6562 899.719 58.9688C901.969 56.0312 903.594 52.5625 904.594 48.5625C905.781 43.875 906.031 39.25 905.344 34.6875C904.594 30.1875 902.719 27.9375 899.719 27.9375Z"/>
<path d="M924.844 12.0938L941.062 8.8125C940.938 10.75 940.875 13.5 940.875 17.0625C940.875 25.5625 941.156 33.0312 941.719 39.4688C942.031 43.1562 942.5 46.125 943.125 48.375L949.5 11.8125L965.625 8.8125C959.125 33.875 954.875 55.5938 952.875 73.9688L938.062 78.0938C938 77.9688 937.594 76.875 936.844 74.8125L931.969 60.9375C931.156 58.6875 930.688 57.25 930.562 56.625C929.25 64 928.219 71.1562 927.469 78.0938L912.469 82.5938L924.844 12.0938Z"/>
</mask>
<path d="M30.0312 25.7812C29.5312 27.5938 29.0938 29.375 28.7188 31.125L27.6875 36.2812L42.6875 33.0938L41.8438 46.0312C34.7188 47.2812 29.125 48.375 25.0625 49.3125C24.8125 50.5625 24.5938 51.8125 24.4062 53.0625L23.75 56.7188L41.1875 54.1875L39.9688 71.625C30.9688 72.375 19.5625 74.5312 5.75 78.0938L16.9062 10.875L48.125 6.375L46.9062 23.7188C40.7812 24.2812 35.1562 24.9688 30.0312 25.7812Z" fill="#FFC300"/>
<path d="M91.25 8.8125C83.8125 29.1875 77.1562 51.0312 71.2812 74.3438L46.3438 78.8438C47.9062 69.9688 48.875 59.1562 49.25 46.4062C49.4375 35.5312 49.625 24.6562 49.8125 13.7812L68.5625 9.5625L60.5 69.375H60.5938L74.2812 11.9062L91.25 8.8125Z" fill="#FFC300"/>
<path d="M101.938 25.7812C101.438 27.5938 101 29.375 100.625 31.125L99.5938 36.2812L114.594 33.0938L113.75 46.0312C106.625 47.2812 101.031 48.375 96.9688 49.3125C96.7188 50.5625 96.5 51.8125 96.3125 53.0625L95.6562 56.7188L113.094 54.1875L111.875 71.625C102.875 72.375 91.4688 74.5312 77.6562 78.0938L88.8125 10.875L120.031 6.375L118.812 23.7188C112.688 24.2812 107.062 24.9688 101.938 25.7812Z" fill="#FFC300"/>
<path d="M123.781 11.7188C133.594 8.78125 141.625 7.3125 147.875 7.3125C156.312 7.3125 160.5 10.25 160.438 16.125C160.375 24.5625 155.062 33.0312 144.5 41.5312C145.375 43.9062 149 51.375 155.375 63.9375C152.125 66.9375 147.219 71.3438 140.656 77.1562L130.625 51.2812H130.531C129.031 59.4688 127.906 67.0312 127.156 73.9688L112.344 78.0938C112.469 76.7188 113.156 72.5625 114.406 65.625L123.781 11.7188ZM135.594 26.5312C135.031 28.6562 134.531 30.7812 134.094 32.9062L132.781 39.2812C134.969 38.1562 137.125 36.6875 139.25 34.875C141.688 32.75 143.312 30.7188 144.125 28.7812C144.438 28.2188 144.594 27.6875 144.594 27.1875C144.594 25.8125 143.688 25.125 141.875 25.125C140.438 25.125 138.344 25.5938 135.594 26.5312Z" fill="#FFC300"/>
<path d="M186.688 10.4062L201.781 13.0312C188.281 36.7188 177.594 58.1562 169.719 77.3438L155.281 76.4062L165.219 55.5L157.344 17.8125L175.625 9.375C175.438 12.25 175.312 15.8438 175.25 20.1562C175.188 24.4688 175.406 28.7812 175.906 33.0938L186.688 10.4062Z" fill="#FFC300"/>
<path d="M197.844 11.7188C205.031 9.34375 211.125 8.15625 216.125 8.15625C221.75 8.15625 226.031 9.625 228.969 12.5625C233.031 16.75 235.062 21.8438 235.062 27.8438C235.062 30.0312 234.781 32.3438 234.219 34.7812C231.781 45.7812 226.031 55.4062 216.969 63.6562C207.906 71.8438 197.812 76.6562 186.688 78.0938C186.812 76.7188 187.469 72.625 188.656 65.8125L196.156 22.6875C197.219 16.25 197.781 12.5938 197.844 11.7188ZM211.25 27.1875C208.375 39.4375 206.188 51.0312 204.688 61.9688C208.438 58.4062 211.781 54.2812 214.719 49.5938C218.344 43.8438 220.156 38.9062 220.156 34.7812C220.156 29.4688 217.188 26.9375 211.25 27.1875Z" fill="#FFC300"/>
<path d="M220.156 79.2188C229.344 55.7812 236.781 33.1875 242.469 11.4375L270.969 6.65625C267.719 25.5938 266.25 48 266.562 73.875L246.688 78.4688L248.094 66.75L241.812 67.9688L239.844 76.2188L220.156 79.2188ZM249.594 54.1875L253.906 18.75H253.812L245 55.0312L249.594 54.1875Z" fill="#FFC300"/>
<path d="M301.344 10.4062L316.438 13.0312C302.938 36.7188 292.25 58.1562 284.375 77.3438L269.938 76.4062L279.875 55.5L272 17.8125L290.281 9.375C290.094 12.25 289.969 15.8438 289.906 20.1562C289.844 24.4688 290.062 28.7812 290.562 33.0938L301.344 10.4062Z" fill="#FFC300"/>
<path d="M340.688 11.8125L358.031 8.8125C354.906 20.75 352.375 31.625 350.438 41.4375L358.219 39.8438L363 11.8125L380.344 8.8125C373.719 34.375 369.531 56.0938 367.781 73.9688L351.656 78.0938L355.969 52.5938C354.219 52.9688 351.562 53.5312 348 54.2812C346.812 61.9688 345.969 68.5312 345.469 73.9688L329.344 78.0938L340.688 11.8125Z" fill="#FFC300"/>
<path d="M394.312 25.7812C393.812 27.5938 393.375 29.375 393 31.125L391.969 36.2812L406.969 33.0938L406.125 46.0312C399 47.2812 393.406 48.375 389.344 49.3125C389.094 50.5625 388.875 51.8125 388.688 53.0625L388.031 56.7188L405.469 54.1875L404.25 71.625C395.25 72.375 383.844 74.5312 370.031 78.0938L381.188 10.875L412.406 6.375L411.188 23.7188C405.062 24.2812 399.438 24.9688 394.312 25.7812Z" fill="#FFC300"/>
<path d="M416.156 11.7188C425.969 8.78125 434 7.3125 440.25 7.3125C448.688 7.3125 452.875 10.25 452.812 16.125C452.75 24.5625 447.438 33.0312 436.875 41.5312C437.75 43.9062 441.375 51.375 447.75 63.9375C444.5 66.9375 439.594 71.3438 433.031 77.1562L423 51.2812H422.906C421.406 59.4688 420.281 67.0312 419.531 73.9688L404.719 78.0938C404.844 76.7188 405.531 72.5625 406.781 65.625L416.156 11.7188ZM427.969 26.5312C427.406 28.6562 426.906 30.7812 426.469 32.9062L425.156 39.2812C427.344 38.1562 429.5 36.6875 431.625 34.875C434.062 32.75 435.688 30.7188 436.5 28.7812C436.812 28.2188 436.969 27.6875 436.969 27.1875C436.969 25.8125 436.062 25.125 434.25 25.125C432.812 25.125 430.719 25.5938 427.969 26.5312Z" fill="#FFC300"/>
<path d="M480.562 4.6875C487.188 4.6875 491.875 8.375 494.625 15.75C496.062 19.5625 496.781 23.75 496.781 28.3125C496.781 32.6875 496.125 37.4375 494.812 42.5625C492.5 51.3125 488.5 59.375 482.812 66.75C475.875 75.75 468.531 80.25 460.781 80.25C454.094 80.25 449.344 76.5625 446.531 69.1875C445.156 65.5625 444.469 61.5 444.469 57C444.469 52.5625 445.156 47.75 446.531 42.5625C448.844 33.75 452.812 25.6562 458.438 18.2812C465.375 9.21875 472.75 4.6875 480.562 4.6875ZM477.188 27.9375C473.75 27.9375 470.25 30.75 466.688 36.375C463.812 40.8125 461.812 45.1562 460.688 49.4062C460.125 51.6562 459.844 53.6875 459.844 55.5C459.844 58.0625 460.469 60.1562 461.719 61.7812C463.156 63.5938 465.156 64.5 467.719 64.5C471.219 64.5 474.375 62.6562 477.188 58.9688C479.438 56.0312 481.062 52.5625 482.062 48.5625C483.25 43.875 483.5 39.25 482.812 34.6875C482.062 30.1875 480.188 27.9375 477.188 27.9375Z" fill="#FFC300"/>
<path d="M513.562 25.7812C513.062 27.5938 512.625 29.375 512.25 31.125L511.219 36.2812L526.219 33.0938L525.375 46.0312C518.25 47.2812 512.656 48.375 508.594 49.3125C508.344 50.5625 508.125 51.8125 507.938 53.0625L507.281 56.7188L524.719 54.1875L523.5 71.625C514.5 72.375 503.094 74.5312 489.281 78.0938L500.438 10.875L531.656 6.375L530.438 23.7188C524.312 24.2812 518.688 24.9688 513.562 25.7812Z" fill="#FFC300"/>
<path d="M569.344 28.4062C567.344 29.1562 564.969 30.0625 562.219 31.125L555.188 33.8438C555.188 30.9062 554.375 29.4375 552.75 29.4375C550.438 29.4375 548.125 30.75 545.812 33.375C544.188 35.3125 543.5 37.1875 543.75 39C543.938 40.1875 545.125 40.7812 547.312 40.7812C548.5 40.7812 550.062 40.5938 552 40.2188C554.688 39.6562 557.062 39.375 559.125 39.375C564.375 39.375 567.438 41.1875 568.312 44.8125C568.562 45.9375 568.688 47.125 568.688 48.375C568.688 52.375 567.188 56.6875 564.188 61.3125C560.312 67.375 554.875 72.4688 547.875 76.5938C544.188 78.7812 540.562 79.875 537 79.875C533.75 79.875 530.562 78.9688 527.438 77.1562C529 73.4062 531.5 67.875 534.938 60.5625C536.938 61.9375 539.062 62.625 541.312 62.625C542.312 62.625 543.344 62.4688 544.406 62.1562C546.344 61.6562 548.188 60.9375 549.938 60C552.438 58.625 553.688 57.2188 553.688 55.7812C553.688 54.2188 552.406 53.4375 549.844 53.4375C548.094 53.4375 545.531 53.8125 542.156 54.5625C538.844 55.25 536.312 55.5938 534.562 55.5938C532.25 55.5938 530.469 55.1562 529.219 54.2812C526.781 52.6562 525.781 50.125 526.219 46.6875C527.031 39.75 531.5 31.7188 539.625 22.5938C547.938 13.2188 555.094 8.3125 561.094 7.875C566.906 7.5 569.812 11.875 569.812 21C569.812 23.1875 569.656 25.6562 569.344 28.4062Z" fill="#FFC300"/>
<path d="M604.781 11.8125L622.125 8.8125C619 20.75 616.469 31.625 614.531 41.4375L622.312 39.8438L627.094 11.8125L644.438 8.8125C637.812 34.375 633.625 56.0938 631.875 73.9688L615.75 78.0938L620.062 52.5938C618.312 52.9688 615.656 53.5312 612.094 54.2812C610.906 61.9688 610.062 68.5312 609.562 73.9688L593.438 78.0938L604.781 11.8125Z" fill="#FFC300"/>
<path d="M627.375 79.2188C636.562 55.7812 644 33.1875 649.688 11.4375L678.188 6.65625C674.938 25.5938 673.469 48 673.781 73.875L653.906 78.4688L655.312 66.75L649.031 67.9688L647.062 76.2188L627.375 79.2188ZM656.812 54.1875L661.125 18.75H661.031L652.219 55.0312L656.812 54.1875Z" fill="#FFC300"/>
<path d="M707.25 7.21875C713.75 7.21875 718.531 10.75 721.594 17.8125L711 29.4375C709.562 27.9375 707.906 27.1875 706.031 27.1875C702.719 27.1875 699.281 30.0312 695.719 35.7188C692.781 40.4062 690.875 44.7812 690 48.8438C689.562 50.7812 689.344 52.5312 689.344 54.0938C689.344 58.2812 690.875 61.1562 693.938 62.7188C694.938 63.2188 696 63.4688 697.125 63.4688C700.375 63.4688 703.781 61.0625 707.344 56.25L710.344 67.4062C704.156 74.2812 697.875 77.7188 691.5 77.7188C685 77.7188 680.25 74.2812 677.25 67.4062C675.438 63.4062 674.531 58.9375 674.531 54C674.531 50.375 675 46.5312 675.938 42.4688C677.812 34.1562 681.375 26.5625 686.625 19.6875C692.938 11.375 699.812 7.21875 707.25 7.21875Z" fill="#FFC300"/>
<path d="M722.156 11.8125L738.281 8.8125C736.844 14.3125 735.781 18.6562 735.094 21.8438C740.531 17.0938 745.5 12.5312 750 8.15625L761.812 15.8438L743.344 32.25L753.75 70.4062L736.781 79.4062L730.219 44.0625C728.281 54.125 726.75 64.0938 725.625 73.9688L710.719 78.0938L722.156 11.8125Z" fill="#FFC300"/>
<path d="M744.75 79.2188C753.938 55.7812 761.375 33.1875 767.062 11.4375L795.562 6.65625C792.312 25.5938 790.844 48 791.156 73.875L771.281 78.4688L772.688 66.75L766.406 67.9688L764.438 76.2188L744.75 79.2188ZM774.188 54.1875L778.5 18.75H778.406L769.594 55.0312L774.188 54.1875Z" fill="#FFC300"/>
<path d="M836.344 7.875L835.781 25.3125C831.406 25.5625 827.25 25.875 823.312 26.25C819.188 43.5625 816.406 59.4688 814.969 73.9688L799.125 78.0938L807.75 28.2188C806.062 28.4688 804.375 28.75 802.688 29.0625L797.719 30L796.594 12.4688L836.344 7.875Z" fill="#FFC300"/>
<path d="M836.062 11.8125L853.406 8.8125C850.281 20.75 847.75 31.625 845.812 41.4375L853.594 39.8438L858.375 11.8125L875.719 8.8125C869.094 34.375 864.906 56.0938 863.156 73.9688L847.031 78.0938L851.344 52.5938C849.594 52.9688 846.938 53.5312 843.375 54.2812C842.188 61.9688 841.344 68.5312 840.844 73.9688L824.719 78.0938L836.062 11.8125Z" fill="#FFC300"/>
<path d="M903.094 4.6875C909.719 4.6875 914.406 8.375 917.156 15.75C918.594 19.5625 919.312 23.75 919.312 28.3125C919.312 32.6875 918.656 37.4375 917.344 42.5625C915.031 51.3125 911.031 59.375 905.344 66.75C898.406 75.75 891.062 80.25 883.312 80.25C876.625 80.25 871.875 76.5625 869.062 69.1875C867.688 65.5625 867 61.5 867 57C867 52.5625 867.688 47.75 869.062 42.5625C871.375 33.75 875.344 25.6562 880.969 18.2812C887.906 9.21875 895.281 4.6875 903.094 4.6875ZM899.719 27.9375C896.281 27.9375 892.781 30.75 889.219 36.375C886.344 40.8125 884.344 45.1562 883.219 49.4062C882.656 51.6562 882.375 53.6875 882.375 55.5C882.375 58.0625 883 60.1562 884.25 61.7812C885.688 63.5938 887.688 64.5 890.25 64.5C893.75 64.5 896.906 62.6562 899.719 58.9688C901.969 56.0312 903.594 52.5625 904.594 48.5625C905.781 43.875 906.031 39.25 905.344 34.6875C904.594 30.1875 902.719 27.9375 899.719 27.9375Z" fill="#FFC300"/>
<path d="M924.844 12.0938L941.062 8.8125C940.938 10.75 940.875 13.5 940.875 17.0625C940.875 25.5625 941.156 33.0312 941.719 39.4688C942.031 43.1562 942.5 46.125 943.125 48.375L949.5 11.8125L965.625 8.8125C959.125 33.875 954.875 55.5938 952.875 73.9688L938.062 78.0938C938 77.9688 937.594 76.875 936.844 74.8125L931.969 60.9375C931.156 58.6875 930.688 57.25 930.562 56.625C929.25 64 928.219 71.1562 927.469 78.0938L912.469 82.5938L924.844 12.0938Z" fill="#FFC300"/>
<path d="M30.0312 25.7812C29.5312 27.5938 29.0938 29.375 28.7188 31.125L27.6875 36.2812L42.6875 33.0938L41.8438 46.0312C34.7188 47.2812 29.125 48.375 25.0625 49.3125C24.8125 50.5625 24.5938 51.8125 24.4062 53.0625L23.75 56.7188L41.1875 54.1875L39.9688 71.625C30.9688 72.375 19.5625 74.5312 5.75 78.0938L16.9062 10.875L48.125 6.375L46.9062 23.7188C40.7812 24.2812 35.1562 24.9688 30.0312 25.7812Z" stroke="black" stroke-width="8" mask="url(#path-1-outside-1)"/>
<path d="M91.25 8.8125C83.8125 29.1875 77.1562 51.0312 71.2812 74.3438L46.3438 78.8438C47.9062 69.9688 48.875 59.1562 49.25 46.4062C49.4375 35.5312 49.625 24.6562 49.8125 13.7812L68.5625 9.5625L60.5 69.375H60.5938L74.2812 11.9062L91.25 8.8125Z" stroke="black" stroke-width="8" mask="url(#path-1-outside-1)"/>
<path d="M101.938 25.7812C101.438 27.5938 101 29.375 100.625 31.125L99.5938 36.2812L114.594 33.0938L113.75 46.0312C106.625 47.2812 101.031 48.375 96.9688 49.3125C96.7188 50.5625 96.5 51.8125 96.3125 53.0625L95.6562 56.7188L113.094 54.1875L111.875 71.625C102.875 72.375 91.4688 74.5312 77.6562 78.0938L88.8125 10.875L120.031 6.375L118.812 23.7188C112.688 24.2812 107.062 24.9688 101.938 25.7812Z" stroke="black" stroke-width="8" mask="url(#path-1-outside-1)"/>
<path d="M123.781 11.7188C133.594 8.78125 141.625 7.3125 147.875 7.3125C156.312 7.3125 160.5 10.25 160.438 16.125C160.375 24.5625 155.062 33.0312 144.5 41.5312C145.375 43.9062 149 51.375 155.375 63.9375C152.125 66.9375 147.219 71.3438 140.656 77.1562L130.625 51.2812H130.531C129.031 59.4688 127.906 67.0312 127.156 73.9688L112.344 78.0938C112.469 76.7188 113.156 72.5625 114.406 65.625L123.781 11.7188ZM135.594 26.5312C135.031 28.6562 134.531 30.7812 134.094 32.9062L132.781 39.2812C134.969 38.1562 137.125 36.6875 139.25 34.875C141.688 32.75 143.312 30.7188 144.125 28.7812C144.438 28.2188 144.594 27.6875 144.594 27.1875C144.594 25.8125 143.688 25.125 141.875 25.125C140.438 25.125 138.344 25.5938 135.594 26.5312Z" stroke="black" stroke-width="8" mask="url(#path-1-outside-1)"/>
<path d="M186.688 10.4062L201.781 13.0312C188.281 36.7188 177.594 58.1562 169.719 77.3438L155.281 76.4062L165.219 55.5L157.344 17.8125L175.625 9.375C175.438 12.25 175.312 15.8438 175.25 20.1562C175.188 24.4688 175.406 28.7812 175.906 33.0938L186.688 10.4062Z" stroke="black" stroke-width="8" mask="url(#path-1-outside-1)"/>
<path d="M197.844 11.7188C205.031 9.34375 211.125 8.15625 216.125 8.15625C221.75 8.15625 226.031 9.625 228.969 12.5625C233.031 16.75 235.062 21.8438 235.062 27.8438C235.062 30.0312 234.781 32.3438 234.219 34.7812C231.781 45.7812 226.031 55.4062 216.969 63.6562C207.906 71.8438 197.812 76.6562 186.688 78.0938C186.812 76.7188 187.469 72.625 188.656 65.8125L196.156 22.6875C197.219 16.25 197.781 12.5938 197.844 11.7188ZM211.25 27.1875C208.375 39.4375 206.188 51.0312 204.688 61.9688C208.438 58.4062 211.781 54.2812 214.719 49.5938C218.344 43.8438 220.156 38.9062 220.156 34.7812C220.156 29.4688 217.188 26.9375 211.25 27.1875Z" stroke="black" stroke-width="8" mask="url(#path-1-outside-1)"/>
<path d="M220.156 79.2188C229.344 55.7812 236.781 33.1875 242.469 11.4375L270.969 6.65625C267.719 25.5938 266.25 48 266.562 73.875L246.688 78.4688L248.094 66.75L241.812 67.9688L239.844 76.2188L220.156 79.2188ZM249.594 54.1875L253.906 18.75H253.812L245 55.0312L249.594 54.1875Z" stroke="black" stroke-width="8" mask="url(#path-1-outside-1)"/>
<path d="M301.344 10.4062L316.438 13.0312C302.938 36.7188 292.25 58.1562 284.375 77.3438L269.938 76.4062L279.875 55.5L272 17.8125L290.281 9.375C290.094 12.25 289.969 15.8438 289.906 20.1562C289.844 24.4688 290.062 28.7812 290.562 33.0938L301.344 10.4062Z" stroke="black" stroke-width="8" mask="url(#path-1-outside-1)"/>
<path d="M340.688 11.8125L358.031 8.8125C354.906 20.75 352.375 31.625 350.438 41.4375L358.219 39.8438L363 11.8125L380.344 8.8125C373.719 34.375 369.531 56.0938 367.781 73.9688L351.656 78.0938L355.969 52.5938C354.219 52.9688 351.562 53.5312 348 54.2812C346.812 61.9688 345.969 68.5312 345.469 73.9688L329.344 78.0938L340.688 11.8125Z" stroke="black" stroke-width="8" mask="url(#path-1-outside-1)"/>
<path d="M394.312 25.7812C393.812 27.5938 393.375 29.375 393 31.125L391.969 36.2812L406.969 33.0938L406.125 46.0312C399 47.2812 393.406 48.375 389.344 49.3125C389.094 50.5625 388.875 51.8125 388.688 53.0625L388.031 56.7188L405.469 54.1875L404.25 71.625C395.25 72.375 383.844 74.5312 370.031 78.0938L381.188 10.875L412.406 6.375L411.188 23.7188C405.062 24.2812 399.438 24.9688 394.312 25.7812Z" stroke="black" stroke-width="8" mask="url(#path-1-outside-1)"/>
<path d="M416.156 11.7188C425.969 8.78125 434 7.3125 440.25 7.3125C448.688 7.3125 452.875 10.25 452.812 16.125C452.75 24.5625 447.438 33.0312 436.875 41.5312C437.75 43.9062 441.375 51.375 447.75 63.9375C444.5 66.9375 439.594 71.3438 433.031 77.1562L423 51.2812H422.906C421.406 59.4688 420.281 67.0312 419.531 73.9688L404.719 78.0938C404.844 76.7188 405.531 72.5625 406.781 65.625L416.156 11.7188ZM427.969 26.5312C427.406 28.6562 426.906 30.7812 426.469 32.9062L425.156 39.2812C427.344 38.1562 429.5 36.6875 431.625 34.875C434.062 32.75 435.688 30.7188 436.5 28.7812C436.812 28.2188 436.969 27.6875 436.969 27.1875C436.969 25.8125 436.062 25.125 434.25 25.125C432.812 25.125 430.719 25.5938 427.969 26.5312Z" stroke="black" stroke-width="8" mask="url(#path-1-outside-1)"/>
<path d="M480.562 4.6875C487.188 4.6875 491.875 8.375 494.625 15.75C496.062 19.5625 496.781 23.75 496.781 28.3125C496.781 32.6875 496.125 37.4375 494.812 42.5625C492.5 51.3125 488.5 59.375 482.812 66.75C475.875 75.75 468.531 80.25 460.781 80.25C454.094 80.25 449.344 76.5625 446.531 69.1875C445.156 65.5625 444.469 61.5 444.469 57C444.469 52.5625 445.156 47.75 446.531 42.5625C448.844 33.75 452.812 25.6562 458.438 18.2812C465.375 9.21875 472.75 4.6875 480.562 4.6875ZM477.188 27.9375C473.75 27.9375 470.25 30.75 466.688 36.375C463.812 40.8125 461.812 45.1562 460.688 49.4062C460.125 51.6562 459.844 53.6875 459.844 55.5C459.844 58.0625 460.469 60.1562 461.719 61.7812C463.156 63.5938 465.156 64.5 467.719 64.5C471.219 64.5 474.375 62.6562 477.188 58.9688C479.438 56.0312 481.062 52.5625 482.062 48.5625C483.25 43.875 483.5 39.25 482.812 34.6875C482.062 30.1875 480.188 27.9375 477.188 27.9375Z" stroke="black" stroke-width="8" mask="url(#path-1-outside-1)"/>
<path d="M513.562 25.7812C513.062 27.5938 512.625 29.375 512.25 31.125L511.219 36.2812L526.219 33.0938L525.375 46.0312C518.25 47.2812 512.656 48.375 508.594 49.3125C508.344 50.5625 508.125 51.8125 507.938 53.0625L507.281 56.7188L524.719 54.1875L523.5 71.625C514.5 72.375 503.094 74.5312 489.281 78.0938L500.438 10.875L531.656 6.375L530.438 23.7188C524.312 24.2812 518.688 24.9688 513.562 25.7812Z" stroke="black" stroke-width="8" mask="url(#path-1-outside-1)"/>
<path d="M569.344 28.4062C567.344 29.1562 564.969 30.0625 562.219 31.125L555.188 33.8438C555.188 30.9062 554.375 29.4375 552.75 29.4375C550.438 29.4375 548.125 30.75 545.812 33.375C544.188 35.3125 543.5 37.1875 543.75 39C543.938 40.1875 545.125 40.7812 547.312 40.7812C548.5 40.7812 550.062 40.5938 552 40.2188C554.688 39.6562 557.062 39.375 559.125 39.375C564.375 39.375 567.438 41.1875 568.312 44.8125C568.562 45.9375 568.688 47.125 568.688 48.375C568.688 52.375 567.188 56.6875 564.188 61.3125C560.312 67.375 554.875 72.4688 547.875 76.5938C544.188 78.7812 540.562 79.875 537 79.875C533.75 79.875 530.562 78.9688 527.438 77.1562C529 73.4062 531.5 67.875 534.938 60.5625C536.938 61.9375 539.062 62.625 541.312 62.625C542.312 62.625 543.344 62.4688 544.406 62.1562C546.344 61.6562 548.188 60.9375 549.938 60C552.438 58.625 553.688 57.2188 553.688 55.7812C553.688 54.2188 552.406 53.4375 549.844 53.4375C548.094 53.4375 545.531 53.8125 542.156 54.5625C538.844 55.25 536.312 55.5938 534.562 55.5938C532.25 55.5938 530.469 55.1562 529.219 54.2812C526.781 52.6562 525.781 50.125 526.219 46.6875C527.031 39.75 531.5 31.7188 539.625 22.5938C547.938 13.2188 555.094 8.3125 561.094 7.875C566.906 7.5 569.812 11.875 569.812 21C569.812 23.1875 569.656 25.6562 569.344 28.4062Z" stroke="black" stroke-width="8" mask="url(#path-1-outside-1)"/>
<path d="M604.781 11.8125L622.125 8.8125C619 20.75 616.469 31.625 614.531 41.4375L622.312 39.8438L627.094 11.8125L644.438 8.8125C637.812 34.375 633.625 56.0938 631.875 73.9688L615.75 78.0938L620.062 52.5938C618.312 52.9688 615.656 53.5312 612.094 54.2812C610.906 61.9688 610.062 68.5312 609.562 73.9688L593.438 78.0938L604.781 11.8125Z" stroke="black" stroke-width="8" mask="url(#path-1-outside-1)"/>
<path d="M627.375 79.2188C636.562 55.7812 644 33.1875 649.688 11.4375L678.188 6.65625C674.938 25.5938 673.469 48 673.781 73.875L653.906 78.4688L655.312 66.75L649.031 67.9688L647.062 76.2188L627.375 79.2188ZM656.812 54.1875L661.125 18.75H661.031L652.219 55.0312L656.812 54.1875Z" stroke="black" stroke-width="8" mask="url(#path-1-outside-1)"/>
<path d="M707.25 7.21875C713.75 7.21875 718.531 10.75 721.594 17.8125L711 29.4375C709.562 27.9375 707.906 27.1875 706.031 27.1875C702.719 27.1875 699.281 30.0312 695.719 35.7188C692.781 40.4062 690.875 44.7812 690 48.8438C689.562 50.7812 689.344 52.5312 689.344 54.0938C689.344 58.2812 690.875 61.1562 693.938 62.7188C694.938 63.2188 696 63.4688 697.125 63.4688C700.375 63.4688 703.781 61.0625 707.344 56.25L710.344 67.4062C704.156 74.2812 697.875 77.7188 691.5 77.7188C685 77.7188 680.25 74.2812 677.25 67.4062C675.438 63.4062 674.531 58.9375 674.531 54C674.531 50.375 675 46.5312 675.938 42.4688C677.812 34.1562 681.375 26.5625 686.625 19.6875C692.938 11.375 699.812 7.21875 707.25 7.21875Z" stroke="black" stroke-width="8" mask="url(#path-1-outside-1)"/>
<path d="M722.156 11.8125L738.281 8.8125C736.844 14.3125 735.781 18.6562 735.094 21.8438C740.531 17.0938 745.5 12.5312 750 8.15625L761.812 15.8438L743.344 32.25L753.75 70.4062L736.781 79.4062L730.219 44.0625C728.281 54.125 726.75 64.0938 725.625 73.9688L710.719 78.0938L722.156 11.8125Z" stroke="black" stroke-width="8" mask="url(#path-1-outside-1)"/>
<path d="M744.75 79.2188C753.938 55.7812 761.375 33.1875 767.062 11.4375L795.562 6.65625C792.312 25.5938 790.844 48 791.156 73.875L771.281 78.4688L772.688 66.75L766.406 67.9688L764.438 76.2188L744.75 79.2188ZM774.188 54.1875L778.5 18.75H778.406L769.594 55.0312L774.188 54.1875Z" stroke="black" stroke-width="8" mask="url(#path-1-outside-1)"/>
<path d="M836.344 7.875L835.781 25.3125C831.406 25.5625 827.25 25.875 823.312 26.25C819.188 43.5625 816.406 59.4688 814.969 73.9688L799.125 78.0938L807.75 28.2188C806.062 28.4688 804.375 28.75 802.688 29.0625L797.719 30L796.594 12.4688L836.344 7.875Z" stroke="black" stroke-width="8" mask="url(#path-1-outside-1)"/>
<path d="M836.062 11.8125L853.406 8.8125C850.281 20.75 847.75 31.625 845.812 41.4375L853.594 39.8438L858.375 11.8125L875.719 8.8125C869.094 34.375 864.906 56.0938 863.156 73.9688L847.031 78.0938L851.344 52.5938C849.594 52.9688 846.938 53.5312 843.375 54.2812C842.188 61.9688 841.344 68.5312 840.844 73.9688L824.719 78.0938L836.062 11.8125Z" stroke="black" stroke-width="8" mask="url(#path-1-outside-1)"/>
<path d="M903.094 4.6875C909.719 4.6875 914.406 8.375 917.156 15.75C918.594 19.5625 919.312 23.75 919.312 28.3125C919.312 32.6875 918.656 37.4375 917.344 42.5625C915.031 51.3125 911.031 59.375 905.344 66.75C898.406 75.75 891.062 80.25 883.312 80.25C876.625 80.25 871.875 76.5625 869.062 69.1875C867.688 65.5625 867 61.5 867 57C867 52.5625 867.688 47.75 869.062 42.5625C871.375 33.75 875.344 25.6562 880.969 18.2812C887.906 9.21875 895.281 4.6875 903.094 4.6875ZM899.719 27.9375C896.281 27.9375 892.781 30.75 889.219 36.375C886.344 40.8125 884.344 45.1562 883.219 49.4062C882.656 51.6562 882.375 53.6875 882.375 55.5C882.375 58.0625 883 60.1562 884.25 61.7812C885.688 63.5938 887.688 64.5 890.25 64.5C893.75 64.5 896.906 62.6562 899.719 58.9688C901.969 56.0312 903.594 52.5625 904.594 48.5625C905.781 43.875 906.031 39.25 905.344 34.6875C904.594 30.1875 902.719 27.9375 899.719 27.9375Z" stroke="black" stroke-width="8" mask="url(#path-1-outside-1)"/>
<path d="M924.844 12.0938L941.062 8.8125C940.938 10.75 940.875 13.5 940.875 17.0625C940.875 25.5625 941.156 33.0312 941.719 39.4688C942.031 43.1562 942.5 46.125 943.125 48.375L949.5 11.8125L965.625 8.8125C959.125 33.875 954.875 55.5938 952.875 73.9688L938.062 78.0938C938 77.9688 937.594 76.875 936.844 74.8125L931.969 60.9375C931.156 58.6875 930.688 57.25 930.562 56.625C929.25 64 928.219 71.1562 927.469 78.0938L912.469 82.5938L924.844 12.0938Z" stroke="black" stroke-width="8" mask="url(#path-1-outside-1)"/>
</svg>
