<svg width="312" height="92" viewBox="0 0 312 92" fill="none" xmlns="http://www.w3.org/2000/svg">
<g filter="url(#filter0_d)">
<path d="M297 7.63932L3 3L12.7311 77L292.256 72.9334L297 7.63932Z" fill="#FB6D2D"/>
<path d="M297 7.63932L3 3L12.7311 77L292.256 72.9334L297 7.63932Z" stroke="#FB6D2D" stroke-width="5" stroke-linejoin="round"/>
</g>
<path d="M111.806 27.22C112.526 26.68 113.246 25.924 113.498 25.132C114.182 22.9 111.842 22.324 110.438 22.324C107.666 22.324 105.218 22.54 102.41 22.792L98.3778 23.152C95.8938 23.404 92.9058 23.404 90.1338 24.232C88.2618 24.772 85.0938 26.716 84.5898 28.264C83.9418 30.316 85.3098 30.928 86.2818 30.928C86.4618 30.928 86.7858 30.928 90.2418 30.352C91.5738 30.172 92.9058 29.956 94.3098 29.776C93.9498 31 93.8778 31.18 93.4818 32.404C92.7258 34.708 91.8978 37.12 91.1058 39.496C90.3858 41.692 89.7378 44.14 89.2698 46.912C88.9458 48.856 89.0898 50.98 91.7898 50.98C93.9498 50.98 95.1738 47.956 95.8938 45.796C95.9298 45.58 96.0738 45.292 96.2898 44.572C97.4418 41.008 98.1618 37.48 99.3138 33.916C99.8178 32.368 100.358 30.748 101.006 29.092C103.202 29.092 105.794 28.552 108.206 28.228C109.718 28.012 110.834 27.94 111.806 27.22ZM128.364 23.872C120.444 23.872 110.796 29.128 108.06 37.588C106.656 41.8 107.592 45.796 110.184 48.316C111.048 49.288 115.008 50.44 116.52 50.44C119.652 50.44 123.504 49.144 126.708 47.668C127.644 47.164 128.58 46.66 129.516 46.12L131.028 45.292C135.852 42.592 137.436 40.684 138.768 36.544C142.116 26.32 136.356 23.548 128.364 23.872ZM128.796 40.18C125.448 42.376 121.884 43.852 118.464 43.852C115.98 43.852 113.712 39.964 114.468 37.66C116.52 32.872 121.092 30.46 125.736 30.46C127.212 30.46 128.58 30.46 129.768 30.784C132.396 31.216 132.864 33.916 132 36.58C131.64 37.732 130.884 38.812 128.796 40.18ZM161.939 23.872C154.019 23.872 144.371 29.128 141.635 37.588C140.231 41.8 141.167 45.796 143.759 48.316C144.623 49.288 148.583 50.44 150.095 50.44C153.227 50.44 157.079 49.144 160.283 47.668C161.219 47.164 162.155 46.66 163.091 46.12L164.603 45.292C169.427 42.592 171.011 40.684 172.343 36.544C175.691 26.32 169.931 23.548 161.939 23.872ZM162.371 40.18C159.023 42.376 155.459 43.852 152.039 43.852C149.555 43.852 147.287 39.964 148.043 37.66C150.095 32.872 154.667 30.46 159.311 30.46C160.787 30.46 162.155 30.46 163.343 30.784C165.971 31.216 166.439 33.916 165.575 36.58C165.215 37.732 164.459 38.812 162.371 40.18ZM173.481 44.896C172.869 47.2 171.897 50.692 175.821 50.692C176.937 50.692 179.961 49.972 183.129 49.108C185.361 48.532 187.737 47.884 189.645 47.488C191.301 47.2 192.993 46.84 195.117 46.156C196.629 45.76 198.285 45.328 198.969 43.312C199.581 41.332 197.637 41.044 196.485 41.044C192.201 41.008 190.257 41.692 182.985 42.88C181.365 43.132 180.789 43.24 180.105 43.42C180.933 39.604 183.381 34.132 185.109 30.316L185.649 29.056C186.117 28.048 186.549 27.112 186.909 26.032C187.377 24.628 188.277 21.856 185.577 21.856C183.345 21.856 181.941 24.304 180.969 26.32C179.637 29.128 178.485 31.288 176.937 34.852C176.037 36.976 175.173 39.28 174.453 41.44C174.057 42.628 173.841 43.78 173.481 44.896ZM216.189 30.424C217.125 29.56 218.097 28.408 218.709 28.732C219.105 28.912 219.069 30.1 219.249 30.892C219.825 34.456 224.253 32.44 225.153 29.776C225.981 27.184 225.693 25.744 225.657 25.168C225.477 23.332 226.053 20.452 223.317 20.452C220.185 20.452 215.433 23.764 213.957 25.168C211.437 27.508 208.773 30.46 206.469 33.052C205.065 34.672 203.553 36.076 202.905 38.02C202.617 39.064 202.581 39.676 203.049 40.36C204.381 42.52 206.937 42.556 209.493 42.124C210.681 41.908 212.553 41.8 212.985 41.8C214.569 41.656 215.505 41.62 216.837 41.62C218.349 41.62 224.001 41.98 223.605 43.168C223.317 43.996 219.753 44.968 218.421 45.184C216.837 45.472 214.785 45.472 212.481 45.472C210.105 45.472 208.053 45.436 206.037 44.896C205.353 44.716 204.705 44.5 203.985 44.5C202.185 44.5 200.709 45.76 200.349 46.876C199.233 50.44 206.145 52.24 210.141 52.24C214.281 52.24 218.277 51.88 222.237 50.26C225.405 48.964 229.329 45.724 230.337 42.772C232.173 36.868 225.837 35.392 220.293 35.392C218.673 35.392 211.437 36.22 211.581 35.68C212.013 34.42 215.469 31.18 216.189 30.424Z" fill="black"/>
<defs>
<filter id="filter0_d" x="0.5" y="0.5" width="311" height="91" filterUnits="userSpaceOnUse" color-interpolation-filters="sRGB">
<feFlood flood-opacity="0" result="BackgroundImageFix"/>
<feColorMatrix in="SourceAlpha" type="matrix" values="0 0 0 0 0 0 0 0 0 0 0 0 0 0 0 0 0 0 127 0"/>
<feOffset dx="8" dy="8"/>
<feGaussianBlur stdDeviation="2"/>
<feColorMatrix type="matrix" values="0 0 0 0 0.433333 0 0 0 0 0.433333 0 0 0 0 0.433333 0 0 0 0.66 0"/>
<feBlend mode="normal" in2="BackgroundImageFix" result="effect1_dropShadow"/>
<feBlend mode="normal" in="SourceGraphic" in2="effect1_dropShadow" result="shape"/>
</filter>
</defs>
</svg>
